<?xml version="1.0" encoding="UTF-8"?>
<svg version="1.1" xmlns="http://www.w3.org/2000/svg" width="1024" height="1024">
<path d="M0 0 C4.00794587 -0.04089741 8.00884991 0.00323288 12.015625 0.0859375 C12.83708008 0.09850586 13.65853516 0.11107422 14.50488281 0.12402344 C69.30101673 1.10431207 122.23702582 14.48234202 172.015625 37.0859375 C172.80437012 37.44042969 173.59311523 37.79492188 174.40576172 38.16015625 C183.13756193 42.09540314 191.57839923 46.35484014 199.84155273 51.20532227 C203.31403257 53.26714789 203.31403257 53.26714789 207.10424805 54.58325195 C209.84601066 55.30432606 211.0479274 57.07483481 213.015625 59.0859375 C214.98304176 60.38661858 216.98711621 61.63275336 219.015625 62.8359375 C220.18201234 63.53866981 221.34735468 64.24313912 222.51171875 64.94921875 C223.09808105 65.3045166 223.68444336 65.65981445 224.28857422 66.02587891 C246.39293341 79.59346833 268.62828726 96.82923287 286.5625 115.66015625 C287.97816202 117.19520741 287.97816202 117.19520741 290.015625 118.0859375 C290.015625 118.7459375 290.015625 119.4059375 290.015625 120.0859375 C290.675625 120.0859375 291.335625 120.0859375 292.015625 120.0859375 C292.015625 120.7459375 292.015625 121.4059375 292.015625 122.0859375 C292.675625 122.0859375 293.335625 122.0859375 294.015625 122.0859375 C295.390625 123.44921875 295.390625 123.44921875 297.015625 125.3984375 C300.05748621 128.97822786 303.16311991 132.48988238 306.328125 135.9609375 C307.16988281 136.88648438 308.01164063 137.81203125 308.87890625 138.765625 C310.22952426 140.23229246 311.60578769 141.67610019 313.015625 143.0859375 C313.8428063 144.15810281 314.65283489 145.24355337 315.453125 146.3359375 C317.82703363 149.53755278 320.27064432 152.672915 322.75805664 155.78710938 C333.95964145 169.85485989 343.9096698 184.58450705 353.015625 200.0859375 C353.41378418 200.75979492 353.81194336 201.43365234 354.22216797 202.12792969 C360.05064563 212.04489504 365.13053745 222.25061052 369.92333984 232.70458984 C370.68227843 234.35919131 371.44878732 236.01033291 372.22119141 237.65869141 C406.25605931 310.98390857 413.0719985 396.32183666 397.015625 475.0859375 C396.79535645 476.17487305 396.57508789 477.26380859 396.34814453 478.38574219 C383.56099261 540.28781533 356.32739622 597.7114262 317.015625 647.0859375 C315.91347656 648.478125 315.91347656 648.478125 314.7890625 649.8984375 C309.94646492 655.92173909 304.83644764 661.63997149 299.58203125 667.30078125 C297.45196315 669.61240766 295.37610742 671.9520673 293.328125 674.3359375 C288.7949891 679.55229724 284.00934906 684.53553279 278.640625 688.8984375 C275.86988177 690.99678999 275.86988177 690.99678999 274.015625 694.0859375 C272.7367461 695.12859037 271.42031693 696.1261578 270.078125 697.0859375 C268.01694647 698.56536283 266.1502799 699.9464389 264.38671875 701.7734375 C263.015625 703.0859375 263.015625 703.0859375 261.015625 703.0859375 C261.015625 703.7459375 261.015625 704.4059375 261.015625 705.0859375 C256.89642998 708.67385825 252.40491811 711.83554491 248.015625 715.0859375 C247.34112305 715.59125 246.66662109 716.0965625 245.97167969 716.6171875 C201.82147663 749.64211732 133.93853308 789.7955675 77.015625 788.0859375 C76.685625 788.7459375 76.355625 789.4059375 76.015625 790.0859375 C73.62890625 790.4296875 73.62890625 790.4296875 70.328125 790.5859375 C66.04669496 790.80913082 61.79928861 791.08729465 57.53833008 791.5612793 C42.26763493 793.23274525 27.03867195 793.42857529 11.69580078 793.40161133 C8.83626522 793.39699238 5.97715634 793.40387514 3.11767578 793.42211914 C-20.87172248 793.57353509 -44.53866177 792.25866968 -68.171875 787.7734375 C-69.32236328 787.55888916 -70.47285156 787.34434082 -71.65820312 787.12329102 C-75.10508979 786.46623416 -78.54543955 785.78332632 -81.984375 785.0859375 C-83.50732178 784.77946289 -83.50732178 784.77946289 -85.06103516 784.46679688 C-112.66399973 778.75677629 -139.80464321 769.35444708 -165.28564453 757.35449219 C-167.89246698 756.12913942 -170.51174067 754.93586531 -173.13671875 753.75 C-183.1857598 749.16349927 -192.70716796 743.95178606 -202.13305664 738.19824219 C-203.98674416 737.08451407 -205.86113371 736.01680818 -207.74609375 734.95703125 C-210.17935718 733.55108048 -212.34951831 732.18705384 -214.546875 730.4609375 C-218.34559452 727.54685129 -222.21338386 724.74269457 -226.109375 721.9609375 C-226.69533447 721.54118652 -227.28129395 721.12143555 -227.88500977 720.68896484 C-230.68919884 718.68828759 -233.50455879 716.75092654 -236.4140625 714.90625 C-237.26226562 714.30554688 -238.11046875 713.70484375 -238.984375 713.0859375 C-238.984375 712.4259375 -238.984375 711.7659375 -238.984375 711.0859375 C-239.54253906 710.83585938 -240.10070312 710.58578125 -240.67578125 710.328125 C-254.25348008 703.02235811 -266.03817493 689.11330169 -276.859375 678.3359375 C-278.05433594 677.14798584 -278.05433594 677.14798584 -279.2734375 675.93603516 C-292.46336108 662.71014912 -304.05141369 648.07108052 -314.84619141 632.85009766 C-315.61648682 631.76414307 -315.61648682 631.76414307 -316.40234375 630.65625 C-316.85375732 630.01445801 -317.3051709 629.37266602 -317.77026367 628.71142578 C-319.02736931 626.94736004 -319.02736931 626.94736004 -320.984375 625.0859375 C-321.95722536 623.40782249 -322.9270737 621.72780663 -323.87353516 620.03466797 C-325.69635844 616.83691512 -327.69762604 613.75405452 -329.671875 610.6484375 C-334.3247407 603.25676698 -338.69809395 595.74296792 -342.88867188 588.08056641 C-343.95413082 586.1409943 -345.0386487 584.21308226 -346.125 582.28515625 C-351.85704593 571.94288918 -356.49587159 561.18591293 -360.99926758 550.26660156 C-361.73246216 548.50654785 -361.73246216 548.50654785 -362.48046875 546.7109375 C-362.91544678 545.65132812 -363.3504248 544.59171875 -363.79858398 543.5 C-364.74774527 540.9519041 -364.74774527 540.9519041 -366.984375 540.0859375 C-367.35278556 537.75788483 -367.68009791 535.42323744 -367.984375 533.0859375 C-368.59795828 530.92989924 -369.26510032 528.7884997 -369.98046875 526.6640625 C-370.37427734 525.47296875 -370.76808594 524.281875 -371.17382812 523.0546875 C-372.00075099 520.59074206 -372.82886125 518.12719478 -373.65820312 515.6640625 C-376.01948828 508.5147228 -377.89998121 501.54198081 -378.984375 494.0859375 C-379.974375 493.7559375 -380.964375 493.4259375 -381.984375 493.0859375 C-381.324375 493.0859375 -380.664375 493.0859375 -379.984375 493.0859375 C-380.2009375 492.26609375 -380.4175 491.44625 -380.640625 490.6015625 C-380.9190625 489.52390625 -381.1975 488.44625 -381.484375 487.3359375 C-381.7628125 486.26859375 -382.04125 485.20125 -382.328125 484.1015625 C-382.984375 481.0859375 -382.984375 481.0859375 -382.984375 477.0859375 C-383.644375 476.7559375 -384.304375 476.4259375 -384.984375 476.0859375 C-385.33032227 474.23364258 -385.33032227 474.23364258 -385.48828125 471.79296875 C-385.80371081 467.89806944 -386.25870503 464.07991269 -386.88671875 460.22265625 C-389.08440206 446.57265988 -390.6011762 433.08506952 -391.38842773 419.29174805 C-391.45489502 418.13070557 -391.5213623 416.96966309 -391.58984375 415.7734375 C-391.64293701 414.74605469 -391.69603027 413.71867187 -391.75073242 412.66015625 C-391.8957843 409.96974153 -391.8957843 409.96974153 -392.984375 407.0859375 C-393.07854514 405.21408393 -393.11508653 403.33906342 -393.1171875 401.46484375 C-393.11847656 400.36462891 -393.11976563 399.26441406 -393.12109375 398.13085938 C-393.11722656 396.98166016 -393.11335938 395.83246094 -393.109375 394.6484375 C-393.11517578 392.93043945 -393.11517578 392.93043945 -393.12109375 391.17773438 C-393.11980469 390.07623047 -393.11851562 388.97472656 -393.1171875 387.83984375 C-393.11605957 386.83252197 -393.11493164 385.8252002 -393.11376953 384.78735352 C-392.99712709 382.35216753 -392.58758926 380.42905397 -391.984375 378.0859375 C-391.74818734 375.85730409 -391.54851395 373.62470502 -391.37109375 371.390625 C-391.25926476 370.03445916 -391.14685398 368.67834119 -391.03393555 367.32226562 C-390.97539398 366.61142822 -390.91685242 365.90059082 -390.85653687 365.16821289 C-384.50231172 289.21574284 -357.33523697 218.06916778 -309.984375 158.0859375 C-309.32050781 157.23644531 -308.65664063 156.38695312 -307.97265625 155.51171875 C-303.51375475 149.88872176 -298.89029858 144.42236454 -294.1965332 138.99536133 C-293.70886475 138.43099365 -293.22119629 137.86662598 -292.71875 137.28515625 C-292.25146484 136.74552246 -291.78417969 136.20588867 -291.30273438 135.64990234 C-290.07401789 134.19228052 -288.9090275 132.68159382 -287.75 131.16796875 C-286.87601563 130.13736328 -286.87601563 130.13736328 -285.984375 129.0859375 C-285.324375 129.0859375 -284.664375 129.0859375 -283.984375 129.0859375 C-283.984375 128.4259375 -283.984375 127.7659375 -283.984375 127.0859375 C-282.48828125 125.6484375 -282.48828125 125.6484375 -280.546875 124.0859375 C-277.83249262 121.94068706 -277.83249262 121.94068706 -275.984375 119.0859375 C-275.324375 119.0859375 -274.664375 119.0859375 -273.984375 119.0859375 C-273.489375 117.6009375 -273.489375 117.6009375 -272.984375 116.0859375 C-271.5234375 114.61328125 -271.5234375 114.61328125 -269.609375 113.0234375 C-266.22435942 110.15733696 -262.93208706 107.21856498 -259.671875 104.2109375 C-254.26940352 99.29016786 -248.68203362 94.65886351 -242.984375 90.0859375 C-241.79381996 89.11513601 -240.60374035 88.14375126 -239.4140625 87.171875 C-231.50701099 80.74047852 -223.45359649 74.76577339 -214.984375 69.0859375 C-213.87141696 68.31390924 -212.75945703 67.54044036 -211.6484375 66.765625 C-201.36200236 59.66198818 -190.54107316 53.56430645 -179.60058594 47.53125 C-177.4114782 46.3218885 -175.23147062 45.09849917 -173.0546875 43.8671875 C-143.29879155 27.40360788 -110.96257629 16.82039334 -77.984375 9.0859375 C-76.61007324 8.75770996 -76.61007324 8.75770996 -75.20800781 8.42285156 C-50.7072047 2.66880156 -25.10147529 0.54140437 0 0 Z " fill="#491D00" transform="translate(504.984375,113.9140625)"/>
<path d="M0 0 C3.06312183 0.01856781 6.12571757 0.00364415 9.18883324 -0.01057529 C35.85352025 -0.11135628 62.46671167 1.67700102 88.43078613 8.13897705 C89.66828613 8.42966064 90.90578613 8.72034424 92.18078613 9.01983643 C99.35616582 10.72227524 106.43461714 12.63434005 113.55578613 14.57647705 C113.55578613 25.46647705 113.55578613 36.35647705 113.55578613 47.57647705 C94.41578613 47.57647705 75.27578613 47.57647705 55.55578613 47.57647705 C55.55578613 61.10647705 55.55578613 74.63647705 55.55578613 88.57647705 C64.46578613 88.57647705 73.37578613 88.57647705 82.55578613 88.57647705 C82.55578613 105.40647705 82.55578613 122.23647705 82.55578613 139.57647705 C105.32578613 139.57647705 128.09578613 139.57647705 151.55578613 139.57647705 C151.55578613 152.77647705 151.55578613 165.97647705 151.55578613 179.57647705 C165.74578613 179.57647705 179.93578613 179.57647705 194.55578613 179.57647705 C194.55578613 193.76647705 194.55578613 207.95647705 194.55578613 222.57647705 C209.40578613 222.57647705 224.25578613 222.57647705 239.55578613 222.57647705 C239.55578613 193.53647705 239.55578613 164.49647705 239.55578613 134.57647705 C226.02578613 134.57647705 212.49578613 134.57647705 198.55578613 134.57647705 C198.55578613 118.73647705 198.55578613 102.89647705 198.55578613 86.57647705 C183.37578613 86.57647705 168.19578613 86.57647705 152.55578613 86.57647705 C152.55578613 68.42647705 152.55578613 50.27647705 152.55578613 31.57647705 C162.70383856 34.95916119 162.70383856 34.95916119 166.79797363 37.0725708 C167.70926025 37.54251465 168.62054687 38.0124585 169.55944824 38.49664307 C170.50698975 38.99736328 171.45453125 39.4980835 172.43078613 40.01397705 C173.43311279 40.54112305 174.43543945 41.06826904 175.46813965 41.61138916 C185.15698855 46.77913321 194.41421126 52.50195191 203.55578613 58.57647705 C204.24188965 59.02845459 204.92799316 59.48043213 205.6348877 59.94610596 C221.26882596 70.28443452 235.93028249 81.7101657 249.55578613 94.57647705 C251.26017682 96.10172758 252.96838105 97.62272983 254.68078613 99.13897705 C262.48578091 106.15470269 269.76656423 113.57840818 276.55578613 121.57647705 C277.35371582 122.48526611 278.15164551 123.39405518 278.97375488 124.3303833 C296.4757258 144.40077086 311.11476676 167.0773909 323.55578613 190.57647705 C323.88320801 191.18217529 324.21062988 191.78787354 324.54797363 192.41192627 C343.52617788 227.63335595 357.18126877 267.74620919 361.55578613 307.57647705 C361.65584961 308.3855249 361.75591309 309.19457275 361.85900879 310.02813721 C366.42333678 347.3693717 366.51508981 391.69856603 354.55578613 427.57647705 C343.66578613 427.57647705 332.77578613 427.57647705 321.55578613 427.57647705 C321.62910156 430.13115723 321.70241699 432.6858374 321.7779541 435.31793213 C322.01266817 443.87444364 322.16563453 452.43111985 322.28115654 460.99002552 C322.35342755 466.16668862 322.45097282 471.33998457 322.61193848 476.51470947 C323.40422445 502.68463095 322.77171841 521.56562823 307.55578613 543.57647705 C306.13281731 545.8087934 304.71997705 548.0475964 303.3170166 550.2925415 C292.69103399 567.26384837 292.69103399 567.26384837 286.55578613 574.57647705 C286.22578613 574.57647705 285.89578613 574.57647705 285.55578613 574.57647705 C285.55578613 525.07647705 285.55578613 475.57647705 285.55578613 424.57647705 C270.37578613 424.57647705 255.19578613 424.57647705 239.55578613 424.57647705 C239.55578613 412.69647705 239.55578613 400.81647705 239.55578613 388.57647705 C188.40578613 388.57647705 137.25578613 388.57647705 84.55578613 388.57647705 C84.55578613 374.38647705 84.55578613 360.19647705 84.55578613 345.57647705 C55.84578613 345.57647705 27.13578613 345.57647705 -2.44421387 345.57647705 C-2.44421387 359.43647705 -2.44421387 373.29647705 -2.44421387 387.57647705 C-13.99421387 387.57647705 -25.54421387 387.57647705 -37.44421387 387.57647705 C-37.44421387 414.96647705 -37.44421387 442.35647705 -37.44421387 470.57647705 C-52.95421387 470.57647705 -68.46421387 470.57647705 -84.44421387 470.57647705 C-84.44421387 480.80647705 -84.44421387 491.03647705 -84.44421387 501.57647705 C-122.39421387 501.57647705 -160.34421387 501.57647705 -199.44421387 501.57647705 C-199.44421387 504.54647705 -199.44421387 507.51647705 -199.44421387 510.57647705 C-209.34421387 510.57647705 -219.24421387 510.57647705 -229.44421387 510.57647705 C-229.44421387 497.70647705 -229.44421387 484.83647705 -229.44421387 471.57647705 C-243.63421387 471.57647705 -257.82421387 471.57647705 -272.44421387 471.57647705 C-272.44421387 429.00647705 -272.44421387 386.43647705 -272.44421387 342.57647705 C-257.92421387 342.57647705 -243.40421387 342.57647705 -228.44421387 342.57647705 C-228.44421387 329.04647705 -228.44421387 315.51647705 -228.44421387 301.57647705 C-213.59421387 301.57647705 -198.74421387 301.57647705 -183.44421387 301.57647705 C-183.44421387 276.16647705 -183.44421387 250.75647705 -183.44421387 224.57647705 C-198.95421387 224.57647705 -214.46421387 224.57647705 -230.44421387 224.57647705 C-230.44421387 209.72647705 -230.44421387 194.87647705 -230.44421387 179.57647705 C-231.10421387 179.57647705 -231.76421387 179.57647705 -232.44421387 179.57647705 C-232.44421387 163.73647705 -232.44421387 147.89647705 -232.44421387 131.57647705 C-243.66421387 131.57647705 -254.88421387 131.57647705 -266.44421387 131.57647705 C-264.74848733 128.18502398 -263.86166758 126.78240596 -261.25671387 124.32647705 C-258.74370018 121.94882475 -256.46534324 119.45562341 -254.21765137 116.8303833 C-250.47774389 112.52514675 -246.43870538 108.63518358 -242.25671387 104.76397705 C-241.50841309 104.06748047 -240.7601123 103.37098389 -239.98913574 102.65338135 C-238.49209458 101.26122944 -236.99359785 99.87064085 -235.49353027 98.48175049 C-233.73953776 96.85104312 -232.00009822 95.20735328 -230.26843262 93.55303955 C-222.78186669 86.491023 -214.7834196 80.27346876 -206.53308105 74.13458252 C-204.6113771 72.70116566 -202.70220054 71.25276864 -200.79577637 69.7991333 C-178.27582231 52.76744467 -153.16471695 37.86242582 -127.03405762 27.06866455 C-124.07935286 25.84048477 -121.20333418 24.53128072 -118.30749512 23.1741333 C-112.23495296 20.40236919 -106.03143619 18.22216937 -99.69421387 16.13897705 C-98.51391602 15.75064697 -97.33361816 15.36231689 -96.11755371 14.96221924 C-64.15693907 4.59638238 -33.46689098 -0.29655104 0 0 Z " fill="#DF741C" transform="translate(503.4442138671875,158.42352294921875)"/>
<path d="M0 0 C28.05 0 56.1 0 85 0 C85 12.54 85 25.08 85 38 C136.48 38 187.96 38 241 38 C241 75.62 241 113.24 241 152 C245.29 152 249.58 152 254 152 C254.29507303 161.04983737 254.5329419 170.09642452 254.67355824 179.15000534 C254.74108951 183.35525524 254.83246477 187.55701389 254.98071289 191.76025391 C255.12319593 195.82602742 255.19993219 199.88847143 255.23340416 203.9565506 C255.25721478 205.49900992 255.30371943 207.04130994 255.37449074 208.5823288 C255.66699436 215.22269593 255.87838277 221.29561504 251.20614624 226.52893066 C248.51538225 229.16184324 245.63679197 231.48610168 242.62613487 233.74108124 C240.15129551 235.65704882 237.93546168 237.82651025 235.6875 240 C223.83353976 250.72174407 210.55104318 259.58911603 197 268 C196.33983887 268.41459473 195.67967773 268.82918945 194.99951172 269.25634766 C174.8960721 281.81415359 153.34540006 291.19238119 130.99316406 298.95849609 C128.42178917 299.85323388 125.86298849 300.77587255 123.3046875 301.70703125 C107.39236263 307.29561904 90.5402456 309.93493585 74 313 C72.44200684 313.28883057 72.44200684 313.28883057 70.85253906 313.58349609 C57.02545862 316.10732752 43.4981837 317.15674262 29.4453125 317.203125 C28.76561275 317.20595238 28.08591301 317.20877975 27.3856163 317.21169281 C23.77188501 317.22658452 20.15819244 317.23587096 16.54443359 317.24023438 C13.63024036 317.24457097 10.71635124 317.25828738 7.80224609 317.28125 C-14.31878317 317.45204084 -36.12728731 316.64545211 -58 313 C-58 295.84 -58 278.68 -58 261 C-69.22 261 -80.44 261 -92 261 C-92 249.78 -92 238.56 -92 227 C-109.49 227 -126.98 227 -145 227 C-145 221.72 -145 216.44 -145 211 C-157.21 211 -169.42 211 -182 211 C-182 191.86 -182 172.72 -182 153 C-141.08 153 -100.16 153 -58 153 C-58 145.74 -58 138.48 -58 131 C-50.74 131 -43.48 131 -36 131 C-36 115.16 -36 99.32 -36 83 C-24.12 83 -12.24 83 0 83 C0 55.61 0 28.22 0 0 Z " fill="#F7D3A2" transform="translate(502,546)"/>
<path d="M0 0 C1.47583954 0.00025104 2.95168496 0.00581025 4.42749023 0.01586914 C5.11452026 0.01687622 5.80155029 0.0178833 6.50939941 0.0189209 C9.08497783 0.02416763 11.66053252 0.0381288 14.23608398 0.05102539 C19.99045898 0.07165039 25.74483398 0.09227539 31.67358398 0.11352539 C31.67358398 15.95352539 31.67358398 31.79352539 31.67358398 48.11352539 C32.33358398 48.11352539 32.99358398 48.11352539 33.67358398 48.11352539 C33.67358398 62.96352539 33.67358398 77.81352539 33.67358398 93.11352539 C49.18358398 93.11352539 64.69358398 93.11352539 80.67358398 93.11352539 C80.67358398 118.52352539 80.67358398 143.93352539 80.67358398 170.11352539 C65.82358398 170.11352539 50.97358398 170.11352539 35.67358398 170.11352539 C35.67358398 183.64352539 35.67358398 197.17352539 35.67358398 211.11352539 C21.15358398 211.11352539 6.63358398 211.11352539 -8.32641602 211.11352539 C-8.32641602 253.68352539 -8.32641602 296.25352539 -8.32641602 340.11352539 C5.86358398 340.11352539 20.05358398 340.11352539 34.67358398 340.11352539 C34.67358398 352.98352539 34.67358398 365.85352539 34.67358398 379.11352539 C44.57358398 379.11352539 54.47358398 379.11352539 64.67358398 379.11352539 C64.67358398 379.44352539 64.67358398 379.77352539 64.67358398 380.11352539 C55.10358398 380.11352539 45.53358398 380.11352539 35.67358398 380.11352539 C35.67358398 409.48352539 35.67358398 438.85352539 35.67358398 469.11352539 C48.54358398 469.11352539 61.41358398 469.11352539 74.67358398 469.11352539 C74.67358398 483.63352539 74.67358398 498.15352539 74.67358398 513.11352539 C70.62264683 511.49315053 68.31236631 510.29843728 64.97827148 507.73461914 C64.10275635 507.06503174 63.22724121 506.39544434 62.32519531 505.70556641 C61.40891357 504.99456787 60.49263184 504.28356934 59.54858398 503.55102539 C58.60587646 502.82520264 57.66316895 502.09937988 56.69189453 501.3515625 C47.61019406 494.33734302 38.72929116 487.19597573 30.25561523 479.44946289 C28.80676733 478.13870487 27.34978796 476.83637943 25.86547852 475.56591797 C20.91239833 471.3191304 16.36614446 466.82646101 11.92358398 462.05102539 C11.22966553 461.30715576 10.53574707 460.56328613 9.82080078 459.796875 C-29.42416561 417.49655939 -56.83399599 365.59996451 -72.32641602 310.11352539 C-72.59583008 309.16429199 -72.86524414 308.21505859 -73.14282227 307.23706055 C-77.77216042 290.71848619 -80.27028559 274.12510733 -82.32641602 257.11352539 C-82.50293701 255.92436523 -82.67945801 254.73520508 -82.86132812 253.51000977 C-83.56473923 247.85386475 -83.50854424 242.18054348 -83.52954102 236.48852539 C-83.53524109 235.26939453 -83.54094116 234.05026367 -83.54681396 232.79418945 C-83.55623891 230.21216694 -83.56278796 227.63013253 -83.56665039 225.0480957 C-83.57624691 221.18165662 -83.60724927 217.31577497 -83.63891602 213.44946289 C-83.72893114 192.64327784 -81.85744929 172.57772764 -77.45141602 152.23852539 C-77.22067383 151.11446289 -76.98993164 149.99040039 -76.75219727 148.83227539 C-73.51387127 133.48919071 -69.13249121 118.76840051 -63.35229492 104.19873047 C-62.44894083 101.91978107 -61.56057924 99.63540219 -60.67407227 97.34985352 C-56.92304037 87.74980295 -52.80434714 78.39728952 -48.32641602 69.11352539 C-48.03198608 68.50042511 -47.73755615 67.88732483 -47.4342041 67.25564575 C-42.91801708 57.85889824 -37.83203759 48.95248247 -32.32641602 40.11352539 C-31.96290039 39.52571289 -31.59938477 38.93790039 -31.22485352 38.33227539 C-7.59924377 0.25935034 -7.59924377 0.25935034 0 0 Z " fill="#AE4F0F" transform="translate(239.326416015625,289.886474609375)"/>
<path d="M0 0 C14.52 0 29.04 0 44 0 C44 14.52 44 29.04 44 44 C59.51 44 75.02 44 91 44 C91 69.41 91 94.82 91 121 C76.15 121 61.3 121 46 121 C46 134.53 46 148.06 46 162 C31.15 162 16.3 162 1 162 C1 150.12 1 138.24 1 126 C-13.19 126 -27.38 126 -42 126 C-42 98.61 -42 71.22 -42 43 C-28.14 43 -14.28 43 0 43 C0 28.81 0 14.62 0 0 Z " fill="#4C1E00" transform="translate(229,339)"/>
<path d="M0 0 C24.75 0 49.5 0 75 0 C75 14.85 75 29.7 75 45 C90.18 45 105.36 45 121 45 C121 58.53 121 72.06 121 86 C105.82 85.67 90.64 85.34 75 85 C75 98.86 75 112.72 75 127 C50.25 127 25.5 127 0 127 C0 113.14 0 99.28 0 85 C-15.18 85 -30.36 85 -46 85 C-46 71.14 -46 57.28 -46 43 C-30.82 43 -15.64 43 0 43 C0 28.81 0 14.62 0 0 Z " fill="#4A1D00" transform="translate(466,339)"/>
<path d="M0 0 C17.16 0 34.32 0 52 0 C52 14.52 52 29.04 52 44 C65.53 44 79.06 44 93 44 C93 58.85 93 73.7 93 89 C78.48 89 63.96 89 49 89 C49 103.19 49 117.38 49 132 C32.83 132 16.66 132 0 132 C0 120.12 0 108.24 0 96 C-14.85 96 -29.7 96 -45 96 C-45 77.19 -45 58.38 -45 39 C-30.15 39 -15.3 39 0 39 C0 26.13 0 13.26 0 0 Z " fill="#4D1E00" transform="translate(373,206)"/>
<path d="M0 0 C13.53 0 27.06 0 41 0 C41 14.52 41 29.04 41 44 C29.78 44 18.56 44 7 44 C7 55.22 7 66.44 7 78 C-26.99 78 -60.98 78 -96 78 C-96 66.78 -96 55.56 -96 44 C-107.22 44 -118.44 44 -130 44 C-130 30.8 -130 17.6 -130 4 C-118.12 4 -106.24 4 -94 4 C-94 16.21 -94 28.42 -94 41 C-62.98 41 -31.96 41 0 41 C0 27.47 0 13.94 0 0 Z " fill="#4C1F01" transform="translate(666,732)"/>
<path d="M0 0 C337.92 0 675.84 0 1024 0 C1024 337.92 1024 675.84 1024 1024 C686.08 1024 348.16 1024 0 1024 C0 686.08 0 348.16 0 0 Z M1 1 C1 338.26 1 675.52 1 1023 C338.26 1023 675.52 1023 1023 1023 C1023 685.74 1023 348.48 1023 1 C685.74 1 348.48 1 1 1 Z " fill="#B27E44" transform="translate(0,0)"/>
<path d="M0 0 C15.18 0 30.36 0 46 0 C46 28.05 46 56.1 46 85 C30.82 85 15.64 85 0 85 C0 56.95 0 28.9 0 0 Z " fill="#4E1F00" transform="translate(556,613)"/>
<path d="M0 0 C13.2 0 26.4 0 40 0 C40 28.05 40 56.1 40 85 C26.8 85 13.6 85 0 85 C0 56.95 0 28.9 0 0 Z " fill="#4E2000" transform="translate(666,613)"/>
<path d="M0 0 C11.88 0 23.76 0 36 0 C37.54644657 27.94649866 38.33621022 48.3541593 22 72 C20.63696756 74.1459191 19.28413243 76.29834818 17.94140625 78.45703125 C7.036829 95.80467718 7.036829 95.80467718 1 103 C0.67 103 0.34 103 0 103 C0 69.01 0 35.02 0 0 Z " fill="#AE4F0F" transform="translate(789,630)"/>
<path d="M0 0 C17.16 0 34.32 0 52 0 C52 13.86 52 27.72 52 42 C34.84 42 17.68 42 0 42 C0 28.14 0 14.28 0 0 Z " fill="#4D1F00" transform="translate(272,547)"/>
<path d="M0 0 C14.52 0 29.04 0 44 0 C44 15.18 44 30.36 44 46 C29.48 46 14.96 46 0 46 C0 30.82 0 15.64 0 0 Z " fill="#491D00" transform="translate(743,500)"/>
<path d="M0 0 C13.53 0 27.06 0 41 0 C41 14.52 41 29.04 41 44 C27.47 44 13.94 44 0 44 C0 29.48 0 14.96 0 0 Z " fill="#4D1E00" transform="translate(375,469)"/>
<path d="M0 0 C12.54 0 25.08 0 38 0 C38 13.2 38 26.4 38 40 C25.46 40 12.92 40 0 40 C0 26.8 0 13.6 0 0 Z " fill="#4E1F00" transform="translate(618,425)"/>
<path d="M0 0 C11.88 0 23.76 0 36 0 C36 13.86 36 27.72 36 42 C24.12 42 12.24 42 0 42 C0 28.14 0 14.28 0 0 Z " fill="#461B00" transform="translate(786,383)"/>
<path d="M0 0 C18.48 0 36.96 0 56 0 C56 10.23 56 20.46 56 31 C40.84908188 25.94969396 26.89289373 17.54218356 13.1875 9.4375 C12.58443024 9.08266541 11.98136047 8.72783081 11.36001587 8.36224365 C1.17684077 2.35368155 1.17684077 2.35368155 0 0 Z " fill="#AE4F10" transform="translate(319,807)"/>
<path d="M0 0 C14.52 0 29.04 0 44 0 C44 14.52 44 29.04 44 44 C59.51 44 75.02 44 91 44 C91 69.41 91 94.82 91 121 C76.15 121 61.3 121 46 121 C46 134.53 46 148.06 46 162 C31.48 162 16.96 162 2 162 C2 150.12 2 138.24 2 126 C2.33 126 2.66 126 3 126 C3 137.22 3 148.44 3 160 C16.53 160 30.06 160 44 160 C43.96039595 147.21006205 43.96039595 147.21006205 43.90991211 134.42016602 C43.90699297 132.8230801 43.90444441 131.22599345 43.90234375 129.62890625 C43.89722778 128.79194214 43.89211182 127.95497803 43.88684082 127.09265137 C43.88653076 125.06141735 43.93759812 123.03027529 44 121 C45 120 45 120 46.79066467 119.87974548 C47.57009933 119.88196609 48.349534 119.88418671 49.15258789 119.88647461 C50.04578735 119.88659546 50.93898682 119.88671631 51.85925293 119.88684082 C52.80417603 119.89195679 53.74909912 119.89707275 54.72265625 119.90234375 C55.58661011 119.90335083 56.45056396 119.90435791 57.34069824 119.90539551 C60.58131225 119.9106445 63.8219074 119.92460564 67.0625 119.9375 C74.301875 119.958125 81.54125 119.97875 89 120 C89 95.58 89 71.16 89 46 C74.23545549 46.03960707 74.23545549 46.03960707 59.47094727 46.09008789 C57.62776751 46.09300694 55.78458712 46.09555552 53.94140625 46.09765625 C52.97489136 46.10277222 52.00837646 46.10788818 51.01257324 46.11315918 C50.09907104 46.11328003 49.18556885 46.11340088 48.24438477 46.11352539 C47.44718521 46.115746 46.64998566 46.11796661 45.82862854 46.12025452 C44 46 44 46 43 45 C42.9072167 43.61839885 42.88252957 42.23211962 42.88647461 40.84741211 C42.88658791 39.52615578 42.88658791 39.52615578 42.88670349 38.1782074 C42.89444542 36.74227989 42.89444542 36.74227989 42.90234375 35.27734375 C42.9037587 34.30213272 42.90517365 33.32692169 42.90663147 32.32215881 C42.91224867 29.19390857 42.92480407 26.06572877 42.9375 22.9375 C42.94251278 20.82226666 42.94707607 18.70703219 42.95117188 16.59179688 C42.96137469 11.39448199 42.98094669 6.19732025 43 1 C29.47 1 15.94 1 2 1 C2.01160156 4.02027344 2.02320313 7.04054688 2.03515625 10.15234375 C2.04294609 13.0646962 2.04902326 15.9770475 2.05493164 18.8894043 C2.05997278 20.91968298 2.06680557 22.94995802 2.07543945 24.98022461 C2.08751467 27.89177347 2.09323034 30.8032745 2.09765625 33.71484375 C2.10281754 34.6283812 2.10797882 35.54191864 2.11329651 36.48313904 C2.11349168 38.65575427 2.06211805 40.82827296 2 43 C1 44 1 44 -2.96899414 44.11352539 C-4.74105605 44.11327421 -6.51312284 44.10770978 -8.28515625 44.09765625 C-9.52211243 44.09614563 -9.52211243 44.09614563 -10.78405762 44.09460449 C-13.87688581 44.08935592 -16.96969424 44.07539477 -20.0625 44.0625 C-26.971875 44.041875 -33.88125 44.02125 -41 44 C-41 70.4 -41 96.8 -41 124 C-27.14 124 -13.28 124 1 124 C1 124.33 1 124.66 1 125 C-13.19 125.33 -27.38 125.66 -42 126 C-42 98.61 -42 71.22 -42 43 C-28.14 43 -14.28 43 0 43 C0 28.81 0 14.62 0 0 Z " fill="#190600" transform="translate(229,339)"/>
<path d="M0 0 C51.15 0 102.3 0 155 0 C155 11.88 155 23.76 155 36 C170.18 36 185.36 36 201 36 C201 85.17 201 134.34 201 185 C200.67 185 200.34 185 200 185 C200 136.49 200 87.98 200 38 C185.81 38 171.62 38 157 38 C157 74.63 157 111.26 157 149 C160.3 149 163.6 149 167 149 C166.67 149.66 166.34 150.32 166 151 C162.37 151 158.74 151 155 151 C154.86766282 136.75800928 154.73716736 122.51600289 154.60884857 108.27397537 C154.54919413 101.65660013 154.48892682 95.03923176 154.42724609 88.421875 C154.36743587 82.00270582 154.30929509 75.58352326 154.25218201 69.16432953 C154.23042454 66.74908689 154.2081244 64.33384906 154.18519592 61.91861725 C153.99302819 41.61078798 154 21.31046275 154 1 C103.18 1 52.36 1 0 1 C0 0.67 0 0.34 0 0 Z " fill="#130300" transform="translate(588,547)"/>
<path d="M0 0 C0 37.62 0 75.24 0 114 C4.29 114 8.58 114 13 114 C13 137.43 13 160.86 13 185 C12.01 185 11.02 185 10 185 C10.495 150.35 10.495 150.35 11 115 C7.04 115 3.08 115 -1 115 C-2 114 -2 114 -2.12304783 112.12780666 C-2.12212604 111.30280194 -2.12120424 110.47779722 -2.12025452 109.62779236 C-2.12232076 108.21510905 -2.12232076 108.21510905 -2.12442875 106.77388668 C-2.12083064 105.7282282 -2.11723253 104.68256971 -2.11352539 103.60522461 C-2.11364593 102.49493928 -2.11376646 101.38465395 -2.11389065 100.24072361 C-2.11314112 96.62791031 -2.10551106 93.01514788 -2.09765625 89.40234375 C-2.09618696 87.17940292 -2.09516617 84.95646175 -2.09460449 82.73352051 C-2.08935016 74.46817508 -2.0753891 66.20283705 -2.0625 57.9375 C-2.041875 39.478125 -2.02125 21.01875 -2 2 C-52.82 2 -103.64 2 -156 2 C-156 1.67 -156 1.34 -156 1 C-135.95543531 0.86953744 -115.91087014 0.73914874 -95.8663044 0.60884857 C-86.55979515 0.54834966 -77.25328606 0.48782635 -67.94677734 0.42724609 C-59.83760257 0.37445989 -51.72842751 0.32171895 -43.61925209 0.26903296 C-39.32337858 0.24112071 -35.02750523 0.2131854 -30.73163223 0.18519592 C-26.69176774 0.15887517 -22.65190285 0.13261475 -18.61203766 0.10640144 C-17.12609976 0.09674891 -15.640162 0.08707397 -14.1542244 0.07737541 C-12.13179818 0.06417854 -10.1093714 0.0510687 -8.08694458 0.03796387 C-6.38623652 0.02690235 -6.38623652 0.02690235 -4.65117073 0.01561737 C-3.10079865 0.00648452 -1.55039898 0 0 0 Z " fill="#FDF5CB" transform="translate(743,584)"/>
<path d="M0 0 C14.85 0 29.7 0 45 0 C44.76990234 5.50300781 44.76990234 5.50300781 44.53515625 11.1171875 C43.93994761 26.11634932 43.67308765 41.11662436 43.4375 56.125 C43.39413959 58.75260846 43.35052095 61.38021267 43.30664062 64.0078125 C43.20146648 70.33849606 43.09941772 76.66922355 43 83 C42.67 83 42.34 83 42 83 C42 56.6 42 30.2 42 3 C28.8 3 15.6 3 2 3 C2 29.07 2 55.14 2 82 C9.26 82 16.52 82 24 82 C24 82.33 24 82.66 24 83 C16.41 83 8.82 83 1 83 C-0.2063665 79.38090049 -0.13189056 76.08176757 -0.11352539 72.31567383 C-0.11374443 71.14458824 -0.11374443 71.14458824 -0.1139679 69.94984436 C-0.11327114 67.36887841 -0.10548982 64.7879846 -0.09765625 62.20703125 C-0.09579123 60.41769958 -0.09436772 58.6283674 -0.09336853 56.83903503 C-0.08954999 52.12902416 -0.07972533 47.41904411 -0.06866455 42.70904541 C-0.05663794 37.05808397 -0.05204503 31.40711223 -0.04621124 25.75614166 C-0.03651325 17.17073967 -0.01735204 8.58540531 0 0 Z " fill="#582B05" transform="translate(557,613)"/>
<path d="M0 0 C14.85 0 29.7 0 45 0 C45 0.33 45 0.66 45 1 C30.81 1 16.62 1 2 1 C2 18.49 2 35.98 2 54 C16.10634224 53.96039384 16.10634224 53.96039384 30.21264648 53.90991211 C31.97379496 53.90699304 33.73494411 53.90444446 35.49609375 53.90234375 C36.41942505 53.89722778 37.34275635 53.89211182 38.29406738 53.88684082 C39.16696411 53.88671997 40.03986084 53.88659912 40.93920898 53.88647461 C41.70087875 53.884254 42.46254852 53.88203339 43.24729919 53.87974548 C45 54 45 54 46 55 C46.08854347 57.6660154 46.115319 60.30669399 46.09765625 62.97265625 C46.09664917 63.67934448 46.09564209 64.38603271 46.09460449 65.11413574 C46.08935745 67.76360691 46.07539629 70.41305502 46.0625 73.0625 C46.041875 78.981875 46.02125 84.90125 46 91 C61.18 91 76.36 91 92 91 C92 77.14 92 63.28 92 49 C92.33 49 92.66 49 93 49 C93.33 63.19 93.66 77.38 94 92 C77.83 92 61.66 92 45 92 C45 80.12 45 68.24 45 56 C30.15 56 15.3 56 0 56 C0 37.52 0 19.04 0 0 Z " fill="#1E0A01" transform="translate(328,246)"/>
<path d="M0 0 C0.33 0 0.66 0 1 0 C1.33 27.39 1.66 54.78 2 83 C15.86 83 29.72 83 44 83 C43.98839844 79.16375 43.97679687 75.3275 43.96484375 71.375 C43.95699795 67.57177818 43.95095279 63.76855734 43.94506836 59.96533203 C43.94010479 57.36474185 43.93333175 54.76415435 43.92456055 52.16357422 C43.86956875 35.4137189 44.12045375 18.72837552 45 2 C45.33 2 45.66 2 46 2 C46 29.39 46 56.78 46 85 C30.82 85 15.64 85 0 85 C0 56.95 0 28.9 0 0 Z " fill="#623214" transform="translate(556,613)"/>
<path d="M0 0 C0 6.6 0 13.2 0 20 C-8.58 20 -17.16 20 -26 20 C-26.33 19.34 -26.66 18.68 -27 18 C-23.96002856 15.74770253 -20.91772171 13.49858026 -17.875 11.25 C-17.0190625 10.61578125 -16.163125 9.9815625 -15.28125 9.328125 C-2.64941406 0 -2.64941406 0 0 0 Z " fill="#AE4F0F" transform="translate(319,218)"/>
<path d="M0 0 C0 14.52 0 29.04 0 44 C13.53 44 27.06 44 41 44 C41 58.85 41 73.7 41 89 C26.48 89 11.96 89 -3 89 C-3 88.67 -3 88.34 -3 88 C10.86 88 24.72 88 39 88 C39 73.81 39 59.62 39 45 C25.88096101 45.03960462 25.88096101 45.03960462 12.76196289 45.09008789 C11.12386134 45.09300701 9.48575906 45.09555558 7.84765625 45.09765625 C6.55982239 45.1053302 6.55982239 45.1053302 5.24597168 45.11315918 C3.16363948 45.1134691 1.0813964 45.06242176 -1 45 C-2 44 -2 44 -2.11352539 40.03100586 C-2.1133662 38.25894393 -2.10766785 36.4868774 -2.09765625 34.71484375 C-2.0962413 33.78402481 -2.09482635 32.85320587 -2.09336853 31.8941803 C-2.08775172 28.90858809 -2.0751964 25.92306971 -2.0625 22.9375 C-2.05748716 20.91862087 -2.05292388 18.89974057 -2.04882812 16.88085938 C-2.03862587 11.92052129 -2.01905382 6.9603437 -2 2 C-14.54 2 -27.08 2 -40 2 C-40 1.67 -40 1.34 -40 1 C-34.62484606 0.85724976 -29.24968321 0.7148417 -23.87451172 0.57275391 C-22.04508213 0.52434598 -20.21565503 0.47584375 -18.38623047 0.42724609 C-15.76009761 0.35750056 -13.13395605 0.28809169 -10.5078125 0.21875 C-9.27649094 0.18593933 -9.27649094 0.18593933 -8.02029419 0.15246582 C-2.22774341 0 -2.22774341 0 0 0 Z " fill="#1E0801" transform="translate(425,206)"/>
<path d="M0 0 C12.54 0 25.08 0 38 0 C38 13.2 38 26.4 38 40 C25.46 40 12.92 40 0 40 C0 26.8 0 13.6 0 0 Z M2 2 C2 13.88 2 25.76 2 38 C13.22 38 24.44 38 36 38 C36 26.12 36 14.24 36 2 C24.78 2 13.56 2 2 2 Z " fill="#2E0C00" transform="translate(618,425)"/>
<path d="M0 0 C12.87 0 25.74 0 39 0 C39 27.39 39 54.78 39 83 C38.34 83 37.68 83 37 83 C37 56.27 37 29.54 37 2 C25.12 2 13.24 2 1 2 C1 18.17 1 34.34 1 51 C0.67 51 0.34 51 0 51 C0 34.17 0 17.34 0 0 Z " fill="#230702" transform="translate(667,613)"/>
<path d="M0 0 C7.52969652 -0.02526648 15.0593822 -0.04283141 22.58911133 -0.05493164 C25.15291757 -0.0599737 27.71672091 -0.06680714 30.28051758 -0.07543945 C33.95655021 -0.08751064 37.63254498 -0.09322942 41.30859375 -0.09765625 C42.46274277 -0.10281754 43.61689178 -0.10797882 44.80601501 -0.11329651 C46.3975515 -0.11340981 46.3975515 -0.11340981 48.02124023 -0.11352539 C48.96055893 -0.115746 49.89987762 -0.11796661 50.86766052 -0.12025452 C53 0 53 0 54 1 C54.09785341 2.34544327 54.12797985 3.69592563 54.12939453 5.04492188 C54.13254669 5.90251099 54.13569885 6.7601001 54.13894653 7.64367676 C54.1369223 8.57595093 54.13489807 9.5082251 54.1328125 10.46875 C54.13376923 11.41939331 54.13472595 12.37003662 54.13571167 13.3494873 C54.13639357 15.36368882 54.13453862 17.37789252 54.13037109 19.39208984 C54.12502298 22.48670355 54.13031577 25.5811721 54.13671875 28.67578125 C54.13605797 30.62760449 54.13477681 32.57942764 54.1328125 34.53125 C54.13483673 35.46352417 54.13686096 36.39579834 54.13894653 37.35632324 C54.13421829 38.64270691 54.13421829 38.64270691 54.12939453 39.95507812 C54.12859894 40.71373169 54.12780334 41.47238525 54.12698364 42.25402832 C54 44 54 44 53 45 C51.31198015 45.09353163 49.62004793 45.11744791 47.92944336 45.11352539 C46.84839828 45.11344986 45.76735321 45.11337433 44.65354919 45.11329651 C42.889515 45.10555458 42.889515 45.10555458 41.08984375 45.09765625 C39.89267227 45.0962413 38.69550079 45.09482635 37.46205139 45.09336853 C33.62050934 45.08774979 29.77902457 45.07519411 25.9375 45.0625 C23.34049563 45.05748741 20.74349035 45.05292409 18.14648438 45.04882812 C11.76428284 45.03862313 5.3822059 45.01905136 -1 45 C-1 30.81 -1 16.62 -1 2 C-0.67 2 -0.34 2 0 2 C0 15.86 0 29.72 0 44 C17.16 44 34.32 44 52 44 C52 30.14 52 16.28 52 2 C48.41382813 2.02320313 44.82765625 2.04640625 41.1328125 2.0703125 C37.6710648 2.08589653 34.20932096 2.09804839 30.74755859 2.10986328 C28.33608256 2.11993954 25.92461878 2.13360081 23.51318359 2.15087891 C20.05302915 2.1750559 16.5930358 2.18646669 13.1328125 2.1953125 C12.04944611 2.20563507 10.96607971 2.21595764 9.84988403 2.22659302 C8.8489975 2.22674408 7.84811096 2.22689514 6.81689453 2.22705078 C5.49118942 2.23371262 5.49118942 2.23371262 4.13870239 2.24050903 C2 2 2 2 0 0 Z " fill="#F69A26" transform="translate(272,545)"/>
<path d="M0 0 C17.16 0 34.32 0 52 0 C52 13.86 52 27.72 52 42 C34.84 42 17.68 42 0 42 C0 28.14 0 14.28 0 0 Z M2 1 C2 13.87 2 26.74 2 40 C18.17 40 34.34 40 51 40 C51 27.13 51 14.26 51 1 C34.83 1 18.66 1 2 1 Z " fill="#1E0700" transform="translate(272,547)"/>
<path d="M0 0 C0.33 0 0.66 0 1 0 C1.33 11.22 1.66 22.44 2 34 C-31.99 34 -65.98 34 -101 34 C-101 23.44 -101 12.88 -101 2 C-100.67 2 -100.34 2 -100 2 C-100 11.9 -100 21.8 -100 32 C-67 32 -34 32 0 32 C0 21.44 0 10.88 0 0 Z " fill="#401A08" transform="translate(671,776)"/>
<path d="M0 0 C13.53 0 27.06 0 41 0 C41 14.52 41 29.04 41 44 C27.47 44 13.94 44 0 44 C0 29.48 0 14.96 0 0 Z M2 1 C2 14.53 2 28.06 2 42 C14.54 42 27.08 42 40 42 C40 28.47 40 14.94 40 1 C27.46 1 14.92 1 2 1 Z " fill="#1D0600" transform="translate(375,469)"/>
<path d="M0 0 C0.33 0 0.66 0 1 0 C1 14.52 1 29.04 1 44 C-9.141225 49.0706125 -21.66176577 45 -33 45 C-33 70.74 -33 96.48 -33 123 C-30.36 123 -27.72 123 -25 123 C-25 123.33 -25 123.66 -25 124 C-27.97 124 -30.94 124 -34 124 C-34.33 96.94 -34.66 69.88 -35 42 C-23.45 42 -11.9 42 0 42 C0 28.14 0 14.28 0 0 Z " fill="#5B2403" transform="translate(501,504)"/>
<path d="M0 0 C0.33 0 0.66 0 1 0 C1 14.52 1 29.04 1 44 C-10.22 44 -21.44 44 -33 44 C-33 54.56 -33 65.12 -33 76 C-33.33 76 -33.66 76 -34 76 C-34 65.11 -34 54.22 -34 43 C-23.44 42.67 -12.88 42.34 -2 42 C-2 29.13 -2 16.26 -2 3 C-13.55 3 -25.1 3 -37 3 C-37 15.21 -37 27.42 -37 40 C-37.33 40 -37.66 40 -38 40 C-38 27.46 -38 14.92 -38 2 C-25.79 2 -13.58 2 -1 2 C-0.67 1.34 -0.34 0.68 0 0 Z " fill="#5B2A0A" transform="translate(706,732)"/>
<path d="M0 0 C0.99 0.495 0.99 0.495 2 1 C4.41094362 1.09275395 6.79268319 1.12584719 9.20361328 1.11352539 C9.9451767 1.11367142 10.68674011 1.11381744 11.45077515 1.1139679 C13.90731713 1.11327 16.36378373 1.10548334 18.8203125 1.09765625 C20.5213924 1.09579163 22.22247284 1.09436794 23.92355347 1.09336853 C28.40506467 1.08954678 32.88654357 1.0797194 37.36804199 1.06866455 C41.9393673 1.05844308 46.51069781 1.05386933 51.08203125 1.04882812 C60.05470171 1.03809685 69.02734817 1.02102451 78 1 C79.17719326 3.35438651 79.08905996 4.64766815 79.02172852 7.26611328 C79.00130493 8.15919189 78.98088135 9.05227051 78.95983887 9.97241211 C78.9331311 10.91221924 78.90642334 11.85202637 78.87890625 12.8203125 C78.85824097 13.68325928 78.83757568 14.54620605 78.81628418 15.43530273 C78.73739554 18.66534623 78.64939482 21.89516197 78.5625 25.125 C78.2840625 35.953125 78.2840625 35.953125 78 47 C92.85 47 107.7 47 123 47 C123 47.33 123 47.66 123 48 C107.82 48 92.64 48 77 48 C77 33.15 77 18.3 77 3 C52.25 3 27.5 3 2 3 C2 17.19 2 31.38 2 46 C1.67 46 1.34 46 1 46 C0.67 30.82 0.34 15.64 0 0 Z " fill="#C96115" transform="translate(464,336)"/>
<path d="M0 0 C0.66 0 1.32 0 2 0 C2.1999849 12.85596967 2.3837312 25.71205809 2.54658794 38.56855488 C2.62271778 44.53795907 2.70449867 50.50717562 2.79907227 56.47631836 C2.89008765 62.23387498 2.96641829 67.99145412 3.03244972 73.74934959 C3.06028066 75.94911175 3.09345659 78.14881283 3.13199425 80.34841347 C3.18495685 83.42279786 3.21913026 86.49684819 3.2487793 89.5715332 C3.26891586 90.48647049 3.28905243 91.40140778 3.30979919 92.34407043 C3.31408936 93.18119568 3.31837952 94.01832092 3.32279968 94.8808136 C3.33293941 95.60810826 3.34307913 96.33540293 3.35352612 97.08473682 C3 99 3 99 0 102 C0 68.34 0 34.68 0 0 Z " fill="#C65A14" transform="translate(789,631)"/>
<path d="M0 0 C0.33 0 0.66 0 1 0 C1.61047539 27.67161293 2.13502023 55.32085194 2 83 C14.54 83 27.08 83 40 83 C40 83.66 40 84.32 40 85 C26.8 85 13.6 85 0 85 C0 56.95 0 28.9 0 0 Z " fill="#613314" transform="translate(666,613)"/>
<path d="M0 0 C14.85 0 29.7 0 45 0 C44.67 8.58 44.34 17.16 44 26 C43.67 26 43.34 26 43 26 C43 18.08 43 10.16 43 2 C29.14 2 15.28 2 1 2 C1 27.74 1 53.48 1 80 C0.67 80 0.34 80 0 80 C0 53.6 0 27.2 0 0 Z " fill="#220A03" transform="translate(557,613)"/>
<path d="M0 0 C16.5 0 33 0 50 0 C50 0.33 50 0.66 50 1 C34.16 1.33 18.32 1.66 2 2 C2.07915803 14.0867591 2.07915803 14.0867591 2.18017578 26.17333984 C2.18601566 27.68586954 2.19111241 29.19840236 2.1953125 30.7109375 C2.20554443 31.49960205 2.21577637 32.2882666 2.22631836 33.10083008 C2.22695172 35.06866651 2.12306332 37.03601526 2 39 C0 41 0 41 -1.94888306 41.20254517 C-2.743862 41.18033905 -3.53884094 41.15813293 -4.35791016 41.13525391 C-5.70908432 41.10499619 -5.70908432 41.10499619 -7.08755493 41.0741272 C-8.54855118 41.02583267 -8.54855118 41.02583267 -10.0390625 40.9765625 C-11.03505463 40.95153656 -12.03104675 40.92651062 -13.05722046 40.90072632 C-16.24681895 40.81837761 -19.43581189 40.72184546 -22.625 40.625 C-24.78382921 40.56677566 -26.94268347 40.50947207 -29.1015625 40.453125 C-34.40137882 40.31277691 -39.70076612 40.16077367 -45 40 C-45 39.67 -45 39.34 -45 39 C-30.15 39 -15.3 39 0 39 C0 26.13 0 13.26 0 0 Z " fill="#3F1503" transform="translate(373,206)"/>
<path d="M0 0 C18.48 0 36.96 0 56 0 C56 10.23 56 20.46 56 31 C49.95266836 28.98422279 44.55825072 26.46289129 38.875 23.625 C37.88628906 23.14289062 36.89757812 22.66078125 35.87890625 22.1640625 C34.92628906 21.6896875 33.97367187 21.2153125 32.9921875 20.7265625 C32.12964355 20.29939941 31.26709961 19.87223633 30.37841797 19.43212891 C27.836989 17.90184536 26.00531596 16.17353744 24 14 C27.6893862 15.41922119 31.20704248 17.0452513 34.73828125 18.8203125 C35.70032471 19.30258301 36.66236816 19.78485352 37.65356445 20.28173828 C38.86101318 20.89001465 40.06846191 21.49829102 41.3125 22.125 C45.169375 24.06375 49.02625 26.0025 53 28 C53.33 19.09 53.66 10.18 54 1 C36.51 1.33 19.02 1.66 1 2 C0.67 1.34 0.34 0.68 0 0 Z " fill="#DA6718" transform="translate(319,807)"/>
<path d="M0 0 C12.87 0 25.74 0 39 0 C39 14.52 39 29.04 39 44 C38.01 43.67 37.02 43.34 36 43 C36.33 29.14 36.66 15.28 37 1 C24.79 1 12.58 1 0 1 C0 0.67 0 0.34 0 0 Z " fill="#D06217" transform="translate(275,759)"/>
<path d="M0 0 C11.22 0 22.44 0 34 0 C33.67 17.16 33.34 34.32 33 52 C32.67 52 32.34 52 32 52 C32 35.5 32 19 32 2 C21.44 2 10.88 2 0 2 C0 1.34 0 0.68 0 0 Z " fill="#190100" transform="translate(410,807)"/>
<path d="M0 0 C0.33 0 0.66 0 1 0 C1.33 1.98 1.66 3.96 2 6 C2.33 6 2.66 6 3 6 C3 8.64 3 11.28 3 14 C2.34 14 1.68 14 1 14 C1 21.59 1 29.18 1 37 C0.34 37 -0.32 37 -1 37 C-0.97679688 38.27617187 -0.95359375 39.55234375 -0.9296875 40.8671875 C-0.91093171 42.5364525 -0.89273131 44.2057238 -0.875 45.875 C-0.84986328 47.13763672 -0.84986328 47.13763672 -0.82421875 48.42578125 C-0.81777344 49.23144531 -0.81132813 50.03710938 -0.8046875 50.8671875 C-0.79421387 51.61081543 -0.78374023 52.35444336 -0.77294922 53.12060547 C-1 55 -1 55 -3 57 C-3.02901401 52.41667994 -3.04680348 47.83338349 -3.0625 43.25 C-3.07087891 41.94804687 -3.07925781 40.64609375 -3.08789062 39.3046875 C-3.09111328 38.05429687 -3.09433594 36.80390625 -3.09765625 35.515625 C-3.10289307 34.36352539 -3.10812988 33.21142578 -3.11352539 32.02441406 C-3.0163077 29.43445113 -2.66537461 27.47174347 -2 25 C-1.78925166 23.0501016 -1.61450212 21.09616099 -1.46484375 19.140625 C-1.37783203 18.02558594 -1.29082031 16.91054688 -1.20117188 15.76171875 C-1.11416016 14.60285156 -1.02714844 13.44398438 -0.9375 12.25 C-0.84662109 11.07566406 -0.75574219 9.90132813 -0.66210938 8.69140625 C-0.43836385 5.79449052 -0.21777821 2.89736944 0 0 Z " fill="#602F0A" transform="translate(115,467)"/>
<path d="M0 0 C15.51 0 31.02 0 47 0 C47 0.33 47 0.66 47 1 C32.48 1.33 17.96 1.66 3 2 C2.67 11.57 2.34 21.14 2 31 C1.34 31 0.68 31 0 31 C0 20.77 0 10.54 0 0 Z " fill="#612505" transform="translate(419,629)"/>
<path d="M0 0 C0 0.33 0 0.66 0 1 C-20.45305967 1.90581277 -40.55049292 2.04441927 -61 1 C-61 0.67 -61 0.34 -61 0 C-40.56073004 -1.12094013 -20.44618639 -0.96289655 0 0 Z " fill="#65340F" transform="translate(541,115)"/>
<path d="M0 0 C0.33 0 0.66 0 1 0 C1.74734361 4.65214935 2.11936092 9.09867942 2.09765625 13.80859375 C2.09443359 15.04931641 2.09121094 16.29003906 2.08789062 17.56835938 C2.07951172 18.84517578 2.07113281 20.12199219 2.0625 21.4375 C2.05798828 22.74138672 2.05347656 24.04527344 2.04882812 25.38867188 C2.03709251 28.59249552 2.02067363 31.79622363 2 35 C1.67 35 1.34 35 1 35 C-1.40331287 23.18205657 -0.8657854 11.95331386 0 0 Z " fill="#300E01" transform="translate(114,504)"/>
<path d="M0 0 C1.25167969 0.07927734 2.50335938 0.15855469 3.79296875 0.24023438 C6.86585658 0.43962023 9.93216258 0.67282258 13 0.9375 C13 1.2675 13 1.5975 13 1.9375 C12.21351074 1.94160889 11.42702148 1.94571777 10.61669922 1.94995117 C7.03538122 1.9829502 3.45574987 2.05360468 -0.125 2.125 C-1.3625 2.13080078 -2.6 2.13660156 -3.875 2.14257812 C-11.40508984 2.1301222 -11.40508984 2.1301222 -17.8671875 5.48828125 C-18.57101562 6.29652344 -19.27484375 7.10476562 -20 7.9375 C-20.66 7.6075 -21.32 7.2775 -22 6.9375 C-15.5437231 -0.93359378 -9.69449268 -0.84455718 0 0 Z " fill="#F58E26" transform="translate(305,237.0625)"/>
<path d="M0 0 C0 0.33 0 0.66 0 1 C-1.98 1 -3.96 1 -6 1 C-6 1.66 -6 2.32 -6 3 C-12.21324498 3.73030908 -17.84098757 4.23180249 -24 3 C-24 2.67 -24 2.34 -24 2 C-21.50072231 1.66029235 -19.00080405 1.32811968 -16.5 1 C-15.80390625 0.90460938 -15.1078125 0.80921875 -14.390625 0.7109375 C-9.55299871 0.0838378 -4.87818804 -0.08789528 0 0 Z " fill="#5E2F0E" transform="translate(478,116)"/>
<path d="M0 0 C4.95 0 9.9 0 15 0 C15 0.66 15 1.32 15 2 C4.605 2.495 4.605 2.495 -6 3 C-6 2.67 -6 2.34 -6 2 C-4.02 2 -2.04 2 0 2 C0 1.34 0 0.68 0 0 Z " fill="#60300E" transform="translate(542,904)"/>
<path d="M0 0 C-3.23606752 1.78139294 -6.42657245 2.77180919 -10 3.6875 C-11.03125 3.95949219 -12.0625 4.23148438 -13.125 4.51171875 C-15.88946552 4.98122716 -17.39750728 4.93214283 -20 4 C-16.93151341 1.95434227 -14.67006349 1.21865713 -11.125 0.3125 C-10.09632813 0.04050781 -9.06765625 -0.23148438 -8.0078125 -0.51171875 C-4.9645641 -1.00575258 -2.94844279 -0.81054977 0 0 Z " fill="#5A2C0C" transform="translate(623,893)"/>
<path d="M0 0 C0.66 0.33 1.32 0.66 2 1 C2.12886183 8.40239645 1.79725902 15.63959083 1 23 C0.67 23 0.34 23 0 23 C-0.8895125 15.1586052 -1.00220537 7.83262041 0 0 Z " fill="#5C2E0E" transform="translate(907,528)"/>
<path d="M0 0 C-1.81402702 2.31380998 -2.71085685 2.95209212 -5.6640625 3.44140625 C-6.64117188 3.48136719 -7.61828125 3.52132812 -8.625 3.5625 C-11.51172091 3.64547704 -11.51172091 3.64547704 -14 4 C-14.33 4.66 -14.66 5.32 -15 6 C-16.65 5.67 -18.3 5.34 -20 5 C-20 4.67 -20 4.34 -20 4 C-16.7 3.67 -13.4 3.34 -10 3 C-10 2.34 -10 1.68 -10 1 C-6.61981469 -0.04005702 -3.5219721 -0.08004482 0 0 Z " fill="#5F300D" transform="translate(596,898)"/>
<path d="M0 0 C0 0.99 0 1.98 0 3 C-0.99 3.66 -1.98 4.32 -3 5 C-3.50702517 7.12106795 -3.50702517 7.12106795 -3.51171875 9.5703125 C-3.54716797 10.46621094 -3.58261719 11.36210937 -3.61914062 12.28515625 C-3.64169922 13.22230469 -3.66425781 14.15945312 -3.6875 15.125 C-3.72166016 16.06988281 -3.75582031 17.01476562 -3.79101562 17.98828125 C-3.87364112 20.32540253 -3.94273988 22.66214191 -4 25 C-4.33 25 -4.66 25 -5 25 C-5.34242942 21.58643466 -5.61496917 18.17075035 -5.875 14.75 C-5.97296875 13.78191406 -6.0709375 12.81382812 -6.171875 11.81640625 C-6.65763091 4.77294551 -6.65763091 4.77294551 -4.66894531 2.43554688 C-3.0078125 1.328125 -3.0078125 1.328125 0 0 Z " fill="#F38C24" transform="translate(325,213)"/>
<path d="M0 0 C2.63520741 2.40502363 4.40302943 5.0185849 6.25 8.0625 C7.06210937 9.37927734 7.06210937 9.37927734 7.890625 10.72265625 C8.25671875 11.47417969 8.6228125 12.22570312 9 13 C8.67 13.66 8.34 14.32 8 15 C4.30841192 11.70393922 2.19486162 8.38972324 0 4 C0 2.68 0 1.36 0 0 Z " fill="#4D2408" transform="translate(854,309)"/>
<path d="M0 0 C0.33 0 0.66 0 1 0 C0.85761163 2.04190981 0.71092972 4.08352045 0.5625 6.125 C0.48128906 7.26195312 0.40007813 8.39890625 0.31640625 9.5703125 C0.02269035 12.7540478 -0.43124313 15.85510907 -1 19 C-1.33 19 -1.66 19 -2 19 C-3.2207243 12.4894704 -3.67487679 5.87980287 0 0 Z " fill="#5D2F0F" transform="translate(906,554)"/>
<path d="M0 0 C0.66 0 1.32 0 2 0 C2.67667998 1.24460783 3.34094719 2.49596896 4 3.75 C4.556875 4.79414062 4.556875 4.79414062 5.125 5.859375 C6 8 6 8 6 12 C6.66 12.33 7.32 12.66 8 13 C7.01 13 6.02 13 5 13 C4.16209211 11.21046815 3.32980604 9.41830305 2.5 7.625 C1.80390625 6.12839844 1.80390625 6.12839844 1.09375 4.6015625 C0 2 0 2 0 0 Z " fill="#512509" transform="translate(151,678)"/>
<path d="M0 0 C0.33 0.99 0.66 1.98 1 3 C1.66 3 2.32 3 3 3 C4.20568053 7.67201205 4.09382426 12.21496292 4 17 C2.48300584 14.19547298 1.54691437 11.6142698 0.875 8.5 C0.70742188 7.7471875 0.53984375 6.994375 0.3671875 6.21875 C0 4 0 4 0 0 Z " fill="#3C1706" transform="translate(897,416)"/>
<path d="M0 0 C1.34155445 4.02466335 0.22380042 5.72149865 -1.3125 9.625 C-1.76238281 10.79289062 -2.21226562 11.96078125 -2.67578125 13.1640625 C-4 16 -4 16 -6 17 C-5.79503906 16.25234375 -5.59007812 15.5046875 -5.37890625 14.734375 C-5.10949219 13.74953125 -4.84007812 12.7646875 -4.5625 11.75 C-4.29566406 10.77546875 -4.02882812 9.8009375 -3.75390625 8.796875 C-3.14455416 6.53627347 -2.55761745 4.27377991 -2 2 C-1.34 2 -0.68 2 0 2 C0 1.34 0 0.68 0 0 Z " fill="#290F00" transform="translate(183,373)"/>
<path d="M0 0 C9.59453303 2.89066059 9.59453303 2.89066059 13 6 C11.3125 6.6875 11.3125 6.6875 9 7 C6.5 5.625 6.5 5.625 4 4 C1.80869466 3.30420546 1.80869466 3.30420546 0 3 C0 2.01 0 1.02 0 0 Z " fill="#54270A" transform="translate(679,153)"/>
<path d="M0 0 C0.59296875 0.22558594 1.1859375 0.45117188 1.796875 0.68359375 C0.89659912 1.71891101 -0.02405535 2.7365354 -0.953125 3.74609375 C-1.71882812 4.59880859 -1.71882812 4.59880859 -2.5 5.46875 C-4.203125 6.68359375 -4.203125 6.68359375 -6.40625 6.3671875 C-6.99921875 6.14160156 -7.5921875 5.91601562 -8.203125 5.68359375 C-7.30284912 4.64827649 -6.38219465 3.6306521 -5.453125 2.62109375 C-4.68742188 1.76837891 -4.68742188 1.76837891 -3.90625 0.8984375 C-2.203125 -0.31640625 -2.203125 -0.31640625 0 0 Z " fill="#E67F20" transform="translate(246.203125,281.31640625)"/>
<path d="M0 0 C0.89525391 0.30164063 0.89525391 0.30164063 1.80859375 0.609375 C0.02334726 1.80650517 -1.76980905 2.99184779 -3.56640625 4.171875 C-5.06300781 5.16380859 -5.06300781 5.16380859 -6.58984375 6.17578125 C-7.44835937 6.64886719 -8.306875 7.12195313 -9.19140625 7.609375 C-9.85140625 7.279375 -10.51140625 6.949375 -11.19140625 6.609375 C-8.34034453 3.44152865 -4.47948922 -0.79848293 0 0 Z " fill="#542708" transform="translate(720.19140625,849.390625)"/>
<path d="M0 0 C0.66 0.33 1.32 0.66 2 1 C-1.34596881 5.56268474 -3.51587765 7.33091929 -9 9 C-7.48328036 4.44984107 -3.83108947 2.49942736 0 0 Z " fill="#301103" transform="translate(728,793)"/>
<path d="M0 0 C2.8045156 1.4022578 3.0442118 3.06070622 4.1875 5.9375 C4.55230469 6.83339844 4.91710937 7.72929687 5.29296875 8.65234375 C6 11 6 11 5 13 C1.68774552 11.34387276 1.23017425 8.35502069 0 5 C-0.1875 2.0625 -0.1875 2.0625 0 0 Z " fill="#522609" transform="translate(875,349)"/>
<path d="M0 0 C-1.6209213 1.17232685 -3.24686833 2.3377077 -4.875 3.5 C-5.77992188 4.1496875 -6.68484375 4.799375 -7.6171875 5.46875 C-10 7 -10 7 -12 7 C-10.84625061 3.53875184 -10.12298029 3.11687417 -7.125 1.25 C-6.42632813 0.80140625 -5.72765625 0.3528125 -5.0078125 -0.109375 C-3 -1 -3 -1 0 0 Z " fill="#502609" transform="translate(739,839)"/>
<path d="M0 0 C0 0.66 0 1.32 0 2 C1.32 2.33 2.64 2.66 4 3 C-1.36891879 2.50130596 -6.69235173 1.97772468 -12 1 C-12 0.67 -12 0.34 -12 0 C-7.74433453 -1.16063604 -4.3164922 -0.76173392 0 0 Z " fill="#63320E" transform="translate(445,900)"/>
<path d="M0 0 C0.33 0.66 0.66 1.32 1 2 C0.00390625 4.3828125 0.00390625 4.3828125 -1.4375 7.125 C-1.91058594 8.03507813 -2.38367188 8.94515625 -2.87109375 9.8828125 C-3.24363281 10.58148437 -3.61617187 11.28015625 -4 12 C-4.66 11.01 -5.32 10.02 -6 9 C-5.38245741 7.68397477 -4.75571258 6.37226444 -4.125 5.0625 C-3.77695312 4.33160156 -3.42890625 3.60070312 -3.0703125 2.84765625 C-2 1 -2 1 0 0 Z " fill="#52270B" transform="translate(872,677)"/>
<path d="M0 0 C1.07310858 3.27185553 0.89263102 5.42947592 0.0625 8.75 C-0.22947266 9.94882812 -0.22947266 9.94882812 -0.52734375 11.171875 C-0.68332031 11.77515625 -0.83929687 12.3784375 -1 13 C-3.56687367 9.1496895 -2.83288724 7.41430237 -2 3 C-1.34 3 -0.68 3 0 3 C0 2.01 0 1.02 0 0 Z " fill="#55280B" transform="translate(901,585)"/>
<path d="M0 0 C2.02350324 3.03525486 2.32124018 4.19426202 2.625 7.6875 C2.69976563 8.49574219 2.77453125 9.30398438 2.8515625 10.13671875 C2.90054688 10.75160156 2.94953125 11.36648438 3 12 C2.67 11.01 2.34 10.02 2 9 C1.34 9 0.68 9 0 9 C-0.87890625 2.84765625 -0.87890625 2.84765625 -1 1 C-0.67 0.67 -0.34 0.34 0 0 Z " fill="#54270A" transform="translate(896,407)"/>
<path d="M0 0 C1.15957207 3.47871621 0.77456651 4.34219645 -0.4375 7.6875 C-0.72496094 8.49574219 -1.01242187 9.30398438 -1.30859375 10.13671875 C-1.65083984 11.05904297 -1.65083984 11.05904297 -2 12 C-2.33 12 -2.66 12 -3 12 C-3.125 4.25 -3.125 4.25 -2 2 C-1.34 2 -0.68 2 0 2 C0 1.34 0 0.68 0 0 Z " fill="#56290C" transform="translate(893,619)"/>
<path d="M0 0 C0.33 0 0.66 0 1 0 C2.25316456 7.24050633 2.25316456 7.24050633 1 11 C1 11.66 1 12.32 1 13 C0.34 13 -0.32 13 -1 13 C-1.33 13.66 -1.66 14.32 -2 15 C-1.03644647 4.44191344 -1.03644647 4.44191344 0 0 Z " fill="#65340E" transform="translate(121,428)"/>
<path d="M0 0 C0.33 0.66 0.66 1.32 1 2 C1.66 2 2.32 2 3 2 C4.125 8.625 4.125 8.625 3 12 C2.49440092 10.56445975 1.9957251 9.1264798 1.5 7.6875 C1.2215625 6.88699219 0.943125 6.08648437 0.65625 5.26171875 C0 3 0 3 0 0 Z " fill="#250D00" transform="translate(851,404)"/>
<path d="M0 0 C0.99 0.66 1.98 1.32 3 2 C1.73160474 2.50615298 0.46016898 3.00469099 -0.8125 3.5 C-1.87404297 3.91765625 -1.87404297 3.91765625 -2.95703125 4.34375 C-5 5 -5 5 -8 5 C-8 4.34 -8 3.68 -8 3 C-6.73637508 2.44172391 -5.4637081 1.90387903 -4.1875 1.375 C-3.47980469 1.07335937 -2.77210938 0.77171875 -2.04296875 0.4609375 C-1.36878906 0.30882812 -0.69460938 0.15671875 0 0 Z " fill="#552909" transform="translate(650,882)"/>
<path d="M0 0 C0.66 0.33 1.32 0.66 2 1 C-1.07999946 4.67230705 -3.2482602 5.56802365 -8 6 C-5.63404067 3.38499232 -3.13950774 1.61000397 0 0 Z " fill="#53290A" transform="translate(315,167)"/>
<path d="M0 0 C0 0.66 0 1.32 0 2 C-3.28696233 2.79953138 -4.71023192 3.09658936 -8 2 C-8.33 2.66 -8.66 3.32 -9 4 C-9.99 3.34 -10.98 2.68 -12 2 C-7.8803623 0.70756464 -4.33168317 -0.26252625 0 0 Z " fill="#5A2D0C" transform="translate(427,124)"/>
<path d="M0 0 C3 1 3 1 4.25 2.8125 C5.11637742 5.33943414 4.88492145 6.52221994 4 9 C0 2.25 0 2.25 0 0 Z " fill="#532809" transform="translate(162,700)"/>
<path d="M0 0 C1.45606519 4.52092968 0.27032841 7.51648796 -1 12 C-2.73745313 9.34271875 -3.00831972 8.10399645 -2.75 4.875 C-2 2 -2 2 0 0 Z " fill="#5D2E0E" transform="translate(898,599)"/>
<path d="M0 0 C0.33 0 0.66 0 1 0 C1.83796731 4.65537393 2.0161692 8.37078475 1 13 C0.67 13 0.34 13 0 13 C-0.19397476 11.02145742 -0.38001321 9.0421352 -0.5625 7.0625 C-0.66691406 5.96035156 -0.77132812 4.85820313 -0.87890625 3.72265625 C-0.91886719 2.82417969 -0.95882812 1.92570313 -1 1 C-0.67 0.67 -0.34 0.34 0 0 Z " fill="#5D2E0B" transform="translate(118,562)"/>
<path d="M0 0 C0.6875 1.6875 0.6875 1.6875 1 4 C-0.25 6.6875 -0.25 6.6875 -2 9 C-2.99 9.33 -3.98 9.66 -5 10 C-3.66511872 6.40608886 -2.03977277 3.24509304 0 0 Z " fill="#4E2509" transform="translate(164,318)"/>
<path d="M0 0 C2.97 0 5.94 0 9 0 C8.01 0.33 7.02 0.66 6 1 C6 1.66 6 2.32 6 3 C4.02 3 2.04 3 0 3 C0 2.01 0 1.02 0 0 Z " fill="#3D1A05" transform="translate(570,859)"/>
<path d="M0 0 C0.33 0 0.66 0 1 0 C2.42857143 8.57142857 2.42857143 8.57142857 0 12 C0 10.68 0 9.36 0 8 C-0.66 7.67 -1.32 7.34 -2 7 C-1.34 4.69 -0.68 2.38 0 0 Z " fill="#562A09" transform="translate(122,583)"/>
<path d="M0 0 C0.65234375 1.796875 0.65234375 1.796875 1 4 C-0.36489377 6.33370072 -2.1419038 8.00594554 -4 10 C-4.33 9.34 -4.66 8.68 -5 8 C-4.00390625 6.0546875 -4.00390625 6.0546875 -2.5625 3.875 C-2.08941406 3.15054687 -1.61632812 2.42609375 -1.12890625 1.6796875 C-0.75636719 1.12539063 -0.38382813 0.57109375 0 0 Z " fill="#CC5E15" transform="translate(211,324)"/>
<path d="M0 0 C0.66 0.33 1.32 0.66 2 1 C0.68 2.65 -0.64 4.3 -2 6 C-3.32 5.67 -4.64 5.34 -6 5 C-4.02 3.35 -2.04 1.7 0 0 Z " fill="#502408" transform="translate(277,192)"/>
<path d="M0 0 C0.99 0 1.98 0 3 0 C3 0.66 3 1.32 3 2 C3.66 2 4.32 2 5 2 C5 2.66 5 3.32 5 4 C5.66 4 6.32 4 7 4 C6.67 4.66 6.34 5.32 6 6 C1.125 3.375 1.125 3.375 0 0 Z " fill="#532607" transform="translate(792,232)"/>
<path d="M0 0 C1.32 0.33 2.64 0.66 4 1 C1.69 2.65 -0.62 4.3 -3 6 C-3.66 5.67 -4.32 5.34 -5 5 C-2.75 2.4375 -2.75 2.4375 0 0 Z " fill="#3F1904" transform="translate(293,181)"/>
<path d="M0 0 C3.68754757 0.49831724 5.60490662 1.10067643 8 4 C5.33579484 4 3.47739354 3.90837763 1 3 C0.67 2.01 0.34 1.02 0 0 Z " fill="#592A08" transform="translate(292,844)"/>
<path d="M0 0 C0.99 0.33 1.98 0.66 3 1 C1.02579865 3.52259061 0.03254358 3.9929808 -3.1875 4.6875 C-4.5796875 4.8421875 -4.5796875 4.8421875 -6 5 C-4.68 4.34 -3.36 3.68 -2 3 C-2 2.34 -2 1.68 -2 1 C-1.34 0.67 -0.68 0.34 0 0 Z " fill="#F4DEB0" transform="translate(657,832)"/>
<path d="M0 0 C1.485 0.99 1.485 0.99 3 2 C3.40843923 4.71203652 3.13336867 7.2437142 3 10 C0.70366176 6.55549263 0.45983515 4.06187717 0 0 Z " fill="#3D1705" transform="translate(891,394)"/>
<path d="M0 0 C2.15377564 2.62198774 3.40072174 4.64404172 4 8 C1 7 1 7 -0.25 4.5625 C-1 2 -1 2 0 0 Z " fill="#4E2409" transform="translate(863,324)"/>
<path d="M0 0 C0.33 0 0.66 0 1 0 C1.33 3.3 1.66 6.6 2 10 C1.01 10.495 1.01 10.495 0 11 C0 7.37 0 3.74 0 0 Z " fill="#6D3207" transform="translate(112,534)"/>
<path d="M0 0 C0.33 0 0.66 0 1 0 C1 2.97 1 5.94 1 9 C0.67 9 0.34 9 0 9 C0 6.03 0 3.06 0 0 Z " fill="#6D3108" transform="translate(112,480)"/>
<path d="M0 0 C0.33 0 0.66 0 1 0 C1 1.65 1 3.3 1 5 C0.34 4.34 -0.32 3.68 -1 3 C-0.67 2.01 -0.34 1.02 0 0 Z " fill="#693206" transform="translate(115,562)"/>
<path d="M0 0 C0.33 0 0.66 0 1 0 C1 2.31 1 4.62 1 7 C0.67 7 0.34 7 0 7 C0 4.69 0 2.38 0 0 Z " fill="#682F07" transform="translate(114,553)"/>
<path d="M0 0 C2.475 0.495 2.475 0.495 5 1 C5 1.33 5 1.66 5 2 C3.35 2 1.7 2 0 2 C0 1.34 0 0.68 0 0 Z " fill="#70350A" transform="translate(432,901)"/>
<path d="M0 0 C0.33 1.32 0.66 2.64 1 4 C0.34 3.67 -0.32 3.34 -1 3 C-0.67 2.01 -0.34 1.02 0 0 Z " fill="#6C3205" transform="translate(113,546)"/>
<path d="M0 0 C1.65 0 3.3 0 5 0 C5 0.33 5 0.66 5 1 C3.35 1 1.7 1 0 1 C0 0.67 0 0.34 0 0 Z " fill="#763B0C" transform="translate(431,120)"/>
<path d="M0 0 C4 1 4 1 4 1 Z " fill="#6E350B" transform="translate(401,895)"/>
<path d="M0 0 C0.33 0.99 0.66 1.98 1 3 C0.34 2.67 -0.32 2.34 -1 2 C-0.67 1.34 -0.34 0.68 0 0 Z " fill="#682E05" transform="translate(209,773)"/>
<path d="M0 0 C1 4 1 4 1 4 Z " fill="#6C3208" transform="translate(113,466)"/>
<path d="M0 0 C0.33 0.99 0.66 1.98 1 3 C0.34 2.67 -0.32 2.34 -1 2 C-0.67 1.34 -0.34 0.68 0 0 Z " fill="#683105" transform="translate(130,386)"/>
<path d="M0 0 C0.33 0.66 0.66 1.32 1 2 C0.01 1.67 -0.98 1.34 -2 1 C-1.34 0.67 -0.68 0.34 0 0 Z " fill="#652E05" transform="translate(146,348)"/>
<path d="M0 0 C0.99 0.33 1.98 0.66 3 1 C2.01 1 1.02 1 0 1 C0 0.67 0 0.34 0 0 Z " fill="#6F3208" transform="translate(308,168)"/>
<path d="M0 0 C4 1 4 1 4 1 Z " fill="#71380D" transform="translate(375,136)"/>
<path d="M0 0 C0.66 0.66 1.32 1.32 2 2 C1.01 1.67 0.02 1.34 -1 1 C-0.67 0.67 -0.34 0.34 0 0 Z " fill="#72390D" transform="translate(394,129)"/>
<path d="M0 0 C4 1 4 1 4 1 Z " fill="#753C0E" transform="translate(399,128)"/>
<path d="M0 0 C0.99 0.33 1.98 0.66 3 1 C2.01 1 1.02 1 0 1 C0 0.67 0 0.34 0 0 Z " fill="#783D0E" transform="translate(494,112)"/>
<path d="M0 0 C3 1 3 1 3 1 Z " fill="#6F350A" transform="translate(484,908)"/>
<path d="M0 0 C3 1 3 1 3 1 Z " fill="#71360B" transform="translate(470,907)"/>
<path d="M0 0 C3 1 3 1 3 1 Z " fill="#693108" transform="translate(352,878)"/>
<path d="M0 0 C0.66 0.66 1.32 1.32 2 2 C1.34 2 0.68 2 0 2 C0 1.34 0 0.68 0 0 Z " fill="#652F04" transform="translate(240,805)"/>
<path d="M0 0 C0.33 0.66 0.66 1.32 1 2 C0.34 1.67 -0.32 1.34 -1 1 C-0.67 0.67 -0.34 0.34 0 0 Z " fill="#643006" transform="translate(806,780)"/>
<path d="M0 0 C0.99 0.495 0.99 0.495 2 1 C1.01 1.495 1.01 1.495 0 2 C0 1.34 0 0.68 0 0 Z " fill="#662E06" transform="translate(202,765)"/>
<path d="" fill="#70370C" transform="translate(0,0)"/>
<path d="" fill="#662E07" transform="translate(0,0)"/>
<path d="M0 0 C0.66 0.66 1.32 1.32 2 2 C1.34 2 0.68 2 0 2 C0 1.34 0 0.68 0 0 Z " fill="#6C3309" transform="translate(902,423)"/>
<path d="M0 0 C0.99 0.495 0.99 0.495 2 1 C1.01 1.495 1.01 1.495 0 2 C0 1.34 0 0.68 0 0 Z " fill="#6C3206" transform="translate(205,256)"/>
<path d="M0 0 C3 1 3 1 3 1 Z " fill="#6A3307" transform="translate(200,256)"/>
<path d="M0 0 C0.66 0.66 1.32 1.32 2 2 C1.34 2 0.68 2 0 2 C0 1.34 0 0.68 0 0 Z " fill="#693005" transform="translate(253,208)"/>
<path d="M0 0 C3 1 3 1 3 1 Z " fill="#6D3007" transform="translate(304,170)"/>
<path d="M0 0 C0.66 0 1.32 0 2 0 C1.67 0.66 1.34 1.32 1 2 C0.67 1.34 0.34 0.68 0 0 Z " fill="#70360A" transform="translate(345,144)"/>
<path d="M0 0 C3 1 3 1 3 1 Z " fill="#6F350B" transform="translate(643,136)"/>
<path d="M0 0 C0.33 0.66 0.66 1.32 1 2 C0.34 1.67 -0.32 1.34 -1 1 C-0.67 0.67 -0.34 0.34 0 0 Z " fill="#783F0E" transform="translate(535,112)"/>
<path d="M0 0 C2 1 2 1 2 1 Z " fill="#72350D" transform="translate(550,907)"/>
<path d="M0 0 C2 1 2 1 2 1 Z " fill="#71360C" transform="translate(429,901)"/>
<path d="M0 0 C2 1 2 1 2 1 Z " fill="#6D350A" transform="translate(418,899)"/>
<path d="M0 0 C2 1 2 1 2 1 Z " fill="#6F360B" transform="translate(646,887)"/>
<path d="" fill="#69300A" transform="translate(0,0)"/>
<path d="M0 0 C2 1 2 1 2 1 Z " fill="#693107" transform="translate(315,860)"/>
<path d="" fill="#632802" transform="translate(0,0)"/>
<path d="M0 0 C2 1 2 1 2 1 Z " fill="#693008" transform="translate(739,839)"/>
<path d="" fill="#693007" transform="translate(0,0)"/>
<path d="M0 0 C2 1 2 1 2 1 Z " fill="#693105" transform="translate(225,791)"/>
<path d="" fill="#6B3107" transform="translate(0,0)"/>
<path d="" fill="#693207" transform="translate(0,0)"/>
<path d="" fill="#682D05" transform="translate(0,0)"/>
<path d="" fill="#652D05" transform="translate(0,0)"/>
<path d="" fill="#692F07" transform="translate(0,0)"/>
<path d="" fill="#6C3206" transform="translate(0,0)"/>
<path d="M0 0 C2 1 2 1 2 1 Z " fill="#6D360A" transform="translate(894,624)"/>
<path d="" fill="#682F05" transform="translate(0,0)"/>
<path d="" fill="#673006" transform="translate(0,0)"/>
<path d="" fill="#6C3207" transform="translate(0,0)"/>
<path d="" fill="#6A2F07" transform="translate(0,0)"/>
<path d="" fill="#6D340A" transform="translate(0,0)"/>
<path d="" fill="#6A3209" transform="translate(0,0)"/>
<path d="" fill="#692F07" transform="translate(0,0)"/>
<path d="" fill="#6D3206" transform="translate(0,0)"/>
<path d="M0 0 C2 1 2 1 2 1 Z " fill="#652F03" transform="translate(137,360)"/>
<path d="" fill="#672E05" transform="translate(0,0)"/>
<path d="" fill="#632C04" transform="translate(0,0)"/>
<path d="" fill="#6A3108" transform="translate(0,0)"/>
<path d="" fill="#68330D" transform="translate(0,0)"/>
<path d="" fill="#703208" transform="translate(0,0)"/>
<path d="M0 0 C2 1 2 1 2 1 Z " fill="#6A3106" transform="translate(176,291)"/>
<path d="M0 0 C2 1 2 1 2 1 Z " fill="#683007" transform="translate(184,283)"/>
<path d="M0 0 C2 1 2 1 2 1 Z " fill="#6D3407" transform="translate(200,259)"/>
<path d="" fill="#6B3307" transform="translate(0,0)"/>
<path d="" fill="#6C3206" transform="translate(0,0)"/>
<path d="" fill="#6A3208" transform="translate(0,0)"/>
<path d="" fill="#6A3208" transform="translate(0,0)"/>
<path d="M0 0 C2 1 2 1 2 1 Z " fill="#6B3006" transform="translate(738,185)"/>
<path d="M0 0 C2 1 2 1 2 1 Z " fill="#6C3307" transform="translate(281,184)"/>
<path d="M0 0 C2 1 2 1 2 1 Z " fill="#6D3409" transform="translate(337,153)"/>
<path d="" fill="#6E360A" transform="translate(0,0)"/>
<path d="" fill="#723709" transform="translate(0,0)"/>
<path d="" fill="#6F380D" transform="translate(0,0)"/>
<path d="M0 0 C2 1 2 1 2 1 Z " fill="#743C0F" transform="translate(422,122)"/>
<path d="M0 0 C2 1 2 1 2 1 Z " fill="#753C0C" transform="translate(587,120)"/>
<path d="M0 0 C2 1 2 1 2 1 Z " fill="#75390F" transform="translate(451,117)"/>
<path d="M0 0 C2 1 2 1 2 1 Z " fill="#7B4113" transform="translate(482,113)"/>
<path d="" fill="#8E5B29" transform="translate(0,0)"/>
<path d="" fill="#8A5624" transform="translate(0,0)"/>
<path d="" fill="#773F12" transform="translate(0,0)"/>
<path d="" fill="#723A0E" transform="translate(0,0)"/>
<path d="" fill="#743710" transform="translate(0,0)"/>
<path d="" fill="#71370E" transform="translate(0,0)"/>
<path d="" fill="#73350C" transform="translate(0,0)"/>
<path d="" fill="#6E3207" transform="translate(0,0)"/>
<path d="" fill="#6C3206" transform="translate(0,0)"/>
<path d="" fill="#6A3207" transform="translate(0,0)"/>
<path d="" fill="#70370D" transform="translate(0,0)"/>
<path d="" fill="#753A0F" transform="translate(0,0)"/>
<path d="" fill="#6D330B" transform="translate(0,0)"/>
<path d="" fill="#70350C" transform="translate(0,0)"/>
<path d="" fill="#6E340B" transform="translate(0,0)"/>
<path d="" fill="#72360D" transform="translate(0,0)"/>
<path d="" fill="#6D310B" transform="translate(0,0)"/>
<path d="" fill="#72390D" transform="translate(0,0)"/>
<path d="" fill="#723A0E" transform="translate(0,0)"/>
<path d="" fill="#6D3109" transform="translate(0,0)"/>
<path d="" fill="#69310A" transform="translate(0,0)"/>
<path d="" fill="#6A2D05" transform="translate(0,0)"/>
<path d="" fill="#693107" transform="translate(0,0)"/>
<path d="" fill="#6A3105" transform="translate(0,0)"/>
<path d="" fill="#6D340C" transform="translate(0,0)"/>
<path d="" fill="#6B310A" transform="translate(0,0)"/>
<path d="" fill="#683109" transform="translate(0,0)"/>
<path d="" fill="#632D03" transform="translate(0,0)"/>
<path d="" fill="#673007" transform="translate(0,0)"/>
<path d="" fill="#653006" transform="translate(0,0)"/>
<path d="" fill="#672D05" transform="translate(0,0)"/>
<path d="" fill="#693208" transform="translate(0,0)"/>
<path d="" fill="#692E08" transform="translate(0,0)"/>
<path d="" fill="#632B07" transform="translate(0,0)"/>
<path d="" fill="#673004" transform="translate(0,0)"/>
<path d="" fill="#6B2E09" transform="translate(0,0)"/>
<path d="" fill="#662B02" transform="translate(0,0)"/>
<path d="" fill="#683109" transform="translate(0,0)"/>
<path d="" fill="#653107" transform="translate(0,0)"/>
<path d="" fill="#672F05" transform="translate(0,0)"/>
<path d="" fill="#693308" transform="translate(0,0)"/>
<path d="" fill="#693005" transform="translate(0,0)"/>
<path d="" fill="#672C04" transform="translate(0,0)"/>
<path d="" fill="#672E06" transform="translate(0,0)"/>
<path d="" fill="#6B3109" transform="translate(0,0)"/>
<path d="" fill="#652C06" transform="translate(0,0)"/>
<path d="" fill="#622B07" transform="translate(0,0)"/>
<path d="" fill="#662D04" transform="translate(0,0)"/>
<path d="" fill="#672D04" transform="translate(0,0)"/>
<path d="" fill="#642F09" transform="translate(0,0)"/>
<path d="" fill="#6D3207" transform="translate(0,0)"/>
<path d="" fill="#662F0A" transform="translate(0,0)"/>
<path d="" fill="#672E06" transform="translate(0,0)"/>
<path d="" fill="#662D07" transform="translate(0,0)"/>
<path d="" fill="#652F07" transform="translate(0,0)"/>
<path d="" fill="#612C04" transform="translate(0,0)"/>
<path d="" fill="#622D05" transform="translate(0,0)"/>
<path d="" fill="#672E08" transform="translate(0,0)"/>
<path d="" fill="#6C360B" transform="translate(0,0)"/>
<path d="" fill="#672E06" transform="translate(0,0)"/>
<path d="" fill="#673005" transform="translate(0,0)"/>
<path d="" fill="#672F05" transform="translate(0,0)"/>
<path d="" fill="#662F09" transform="translate(0,0)"/>
<path d="" fill="#6C3008" transform="translate(0,0)"/>
<path d="" fill="#6A3107" transform="translate(0,0)"/>
<path d="" fill="#6A3309" transform="translate(0,0)"/>
<path d="" fill="#6A310A" transform="translate(0,0)"/>
<path d="" fill="#6A3209" transform="translate(0,0)"/>
<path d="" fill="#6A3208" transform="translate(0,0)"/>
<path d="" fill="#6E350A" transform="translate(0,0)"/>
<path d="" fill="#6A2F07" transform="translate(0,0)"/>
<path d="" fill="#693009" transform="translate(0,0)"/>
<path d="" fill="#652C07" transform="translate(0,0)"/>
<path d="" fill="#693108" transform="translate(0,0)"/>
<path d="" fill="#6A3309" transform="translate(0,0)"/>
<path d="" fill="#683008" transform="translate(0,0)"/>
<path d="" fill="#6B3109" transform="translate(0,0)"/>
<path d="" fill="#672E07" transform="translate(0,0)"/>
<path d="" fill="#6C3008" transform="translate(0,0)"/>
<path d="" fill="#6B3006" transform="translate(0,0)"/>
<path d="" fill="#682D05" transform="translate(0,0)"/>
<path d="" fill="#692F0A" transform="translate(0,0)"/>
<path d="" fill="#69320A" transform="translate(0,0)"/>
<path d="" fill="#662E08" transform="translate(0,0)"/>
<path d="" fill="#652D06" transform="translate(0,0)"/>
<path d="" fill="#652D05" transform="translate(0,0)"/>
<path d="" fill="#642D07" transform="translate(0,0)"/>
<path d="" fill="#642F08" transform="translate(0,0)"/>
<path d="" fill="#6C330B" transform="translate(0,0)"/>
<path d="" fill="#6D380A" transform="translate(0,0)"/>
<path d="" fill="#673209" transform="translate(0,0)"/>
<path d="" fill="#672F06" transform="translate(0,0)"/>
<path d="" fill="#652D06" transform="translate(0,0)"/>
<path d="" fill="#693209" transform="translate(0,0)"/>
<path d="" fill="#6E370E" transform="translate(0,0)"/>
<path d="" fill="#6F380B" transform="translate(0,0)"/>
<path d="" fill="#693006" transform="translate(0,0)"/>
<path d="" fill="#692E07" transform="translate(0,0)"/>
<path d="" fill="#6C2F06" transform="translate(0,0)"/>
<path d="" fill="#6F330C" transform="translate(0,0)"/>
<path d="" fill="#693008" transform="translate(0,0)"/>
<path d="" fill="#6A3008" transform="translate(0,0)"/>
<path d="" fill="#682D05" transform="translate(0,0)"/>
<path d="" fill="#72380C" transform="translate(0,0)"/>
<path d="" fill="#6F360D" transform="translate(0,0)"/>
<path d="" fill="#70370B" transform="translate(0,0)"/>
<path d="" fill="#6B3006" transform="translate(0,0)"/>
<path d="" fill="#692D07" transform="translate(0,0)"/>
<path d="" fill="#683108" transform="translate(0,0)"/>
<path d="" fill="#6B3308" transform="translate(0,0)"/>
<path d="" fill="#6C3206" transform="translate(0,0)"/>
<path d="" fill="#6A3108" transform="translate(0,0)"/>
<path d="" fill="#6A3108" transform="translate(0,0)"/>
<path d="" fill="#693208" transform="translate(0,0)"/>
<path d="" fill="#682E04" transform="translate(0,0)"/>
<path d="" fill="#683006" transform="translate(0,0)"/>
<path d="" fill="#6C3205" transform="translate(0,0)"/>
<path d="" fill="#662D05" transform="translate(0,0)"/>
<path d="" fill="#6A3207" transform="translate(0,0)"/>
<path d="" fill="#6C340A" transform="translate(0,0)"/>
<path d="" fill="#6F370A" transform="translate(0,0)"/>
<path d="" fill="#6C3104" transform="translate(0,0)"/>
<path d="" fill="#6A3309" transform="translate(0,0)"/>
<path d="" fill="#6F3205" transform="translate(0,0)"/>
<path d="" fill="#6D3307" transform="translate(0,0)"/>
<path d="" fill="#6D3107" transform="translate(0,0)"/>
<path d="" fill="#6C3306" transform="translate(0,0)"/>
<path d="" fill="#6E340D" transform="translate(0,0)"/>
<path d="" fill="#673109" transform="translate(0,0)"/>
<path d="" fill="#6F350A" transform="translate(0,0)"/>
<path d="" fill="#6C3409" transform="translate(0,0)"/>
<path d="" fill="#6C350B" transform="translate(0,0)"/>
<path d="" fill="#6E390C" transform="translate(0,0)"/>
<path d="" fill="#9E642E" transform="translate(0,0)"/>
<path d="" fill="#6D310B" transform="translate(0,0)"/>
<path d="" fill="#70370C" transform="translate(0,0)"/>
<path d="" fill="#703309" transform="translate(0,0)"/>
<path d="" fill="#6D330A" transform="translate(0,0)"/>
<path d="" fill="#6C3209" transform="translate(0,0)"/>
<path d="" fill="#6D340C" transform="translate(0,0)"/>
<path d="" fill="#6E3208" transform="translate(0,0)"/>
<path d="" fill="#6C3107" transform="translate(0,0)"/>
<path d="" fill="#683106" transform="translate(0,0)"/>
<path d="" fill="#6B3409" transform="translate(0,0)"/>
<path d="" fill="#662D07" transform="translate(0,0)"/>
<path d="" fill="#6E3309" transform="translate(0,0)"/>
<path d="" fill="#652D04" transform="translate(0,0)"/>
<path d="" fill="#6A3106" transform="translate(0,0)"/>
<path d="" fill="#6D3109" transform="translate(0,0)"/>
<path d="" fill="#6D3209" transform="translate(0,0)"/>
<path d="" fill="#6C340B" transform="translate(0,0)"/>
<path d="" fill="#6E3608" transform="translate(0,0)"/>
<path d="" fill="#693008" transform="translate(0,0)"/>
<path d="" fill="#6A3009" transform="translate(0,0)"/>
<path d="" fill="#6D340D" transform="translate(0,0)"/>
<path d="" fill="#6B3207" transform="translate(0,0)"/>
<path d="" fill="#6A3109" transform="translate(0,0)"/>
<path d="" fill="#6A3007" transform="translate(0,0)"/>
<path d="" fill="#6B3307" transform="translate(0,0)"/>
<path d="" fill="#682F08" transform="translate(0,0)"/>
<path d="" fill="#6C3209" transform="translate(0,0)"/>
<path d="" fill="#6B3209" transform="translate(0,0)"/>
<path d="" fill="#6A350A" transform="translate(0,0)"/>
<path d="" fill="#6C330B" transform="translate(0,0)"/>
<path d="" fill="#70350B" transform="translate(0,0)"/>
<path d="" fill="#6D340A" transform="translate(0,0)"/>
<path d="" fill="#662E09" transform="translate(0,0)"/>
<path d="" fill="#6A3107" transform="translate(0,0)"/>
<path d="" fill="#662F05" transform="translate(0,0)"/>
<path d="" fill="#6A2F04" transform="translate(0,0)"/>
<path d="" fill="#672B06" transform="translate(0,0)"/>
<path d="" fill="#672F04" transform="translate(0,0)"/>
<path d="" fill="#6C3208" transform="translate(0,0)"/>
<path d="" fill="#682F07" transform="translate(0,0)"/>
<path d="" fill="#643004" transform="translate(0,0)"/>
<path d="" fill="#652F05" transform="translate(0,0)"/>
<path d="" fill="#683107" transform="translate(0,0)"/>
<path d="" fill="#6B3005" transform="translate(0,0)"/>
<path d="" fill="#662D05" transform="translate(0,0)"/>
<path d="" fill="#6C3107" transform="translate(0,0)"/>
<path d="" fill="#6A2E04" transform="translate(0,0)"/>
<path d="" fill="#6D3305" transform="translate(0,0)"/>
<path d="" fill="#673006" transform="translate(0,0)"/>
<path d="" fill="#6A3405" transform="translate(0,0)"/>
<path d="" fill="#6A3307" transform="translate(0,0)"/>
<path d="" fill="#673206" transform="translate(0,0)"/>
<path d="" fill="#693206" transform="translate(0,0)"/>
<path d="" fill="#682F04" transform="translate(0,0)"/>
<path d="" fill="#693008" transform="translate(0,0)"/>
<path d="" fill="#6A2E07" transform="translate(0,0)"/>
<path d="" fill="#662D06" transform="translate(0,0)"/>
<path d="" fill="#6A2F08" transform="translate(0,0)"/>
<path d="" fill="#6A3406" transform="translate(0,0)"/>
<path d="" fill="#652B03" transform="translate(0,0)"/>
<path d="" fill="#6A3308" transform="translate(0,0)"/>
<path d="" fill="#693205" transform="translate(0,0)"/>
<path d="" fill="#693007" transform="translate(0,0)"/>
<path d="" fill="#693406" transform="translate(0,0)"/>
<path d="" fill="#6F3408" transform="translate(0,0)"/>
<path d="" fill="#6B3307" transform="translate(0,0)"/>
<path d="" fill="#6E3309" transform="translate(0,0)"/>
<path d="" fill="#652F07" transform="translate(0,0)"/>
<path d="" fill="#6D3406" transform="translate(0,0)"/>
<path d="" fill="#6B3308" transform="translate(0,0)"/>
<path d="" fill="#6B3508" transform="translate(0,0)"/>
<path d="" fill="#6C3209" transform="translate(0,0)"/>
<path d="" fill="#6C3705" transform="translate(0,0)"/>
<path d="" fill="#662A05" transform="translate(0,0)"/>
<path d="" fill="#6A3209" transform="translate(0,0)"/>
<path d="" fill="#673007" transform="translate(0,0)"/>
<path d="" fill="#6B3509" transform="translate(0,0)"/>
<path d="" fill="#6A3506" transform="translate(0,0)"/>
<path d="" fill="#6B3008" transform="translate(0,0)"/>
<path d="" fill="#6B3108" transform="translate(0,0)"/>
<path d="" fill="#672D05" transform="translate(0,0)"/>
<path d="" fill="#682F04" transform="translate(0,0)"/>
<path d="" fill="#693308" transform="translate(0,0)"/>
<path d="" fill="#6D3508" transform="translate(0,0)"/>
<path d="" fill="#67350A" transform="translate(0,0)"/>
<path d="" fill="#6D3107" transform="translate(0,0)"/>
<path d="" fill="#6B3407" transform="translate(0,0)"/>
<path d="" fill="#6C3307" transform="translate(0,0)"/>
<path d="" fill="#69340A" transform="translate(0,0)"/>
<path d="" fill="#673005" transform="translate(0,0)"/>
<path d="" fill="#6B3207" transform="translate(0,0)"/>
<path d="" fill="#6E3307" transform="translate(0,0)"/>
<path d="" fill="#6C320B" transform="translate(0,0)"/>
<path d="" fill="#6A2F08" transform="translate(0,0)"/>
<path d="" fill="#6B3309" transform="translate(0,0)"/>
<path d="" fill="#6B3408" transform="translate(0,0)"/>
<path d="" fill="#6D350C" transform="translate(0,0)"/>
<path d="" fill="#6C3507" transform="translate(0,0)"/>
<path d="" fill="#6A3208" transform="translate(0,0)"/>
<path d="" fill="#6A3003" transform="translate(0,0)"/>
<path d="" fill="#692F08" transform="translate(0,0)"/>
<path d="" fill="#6C2F06" transform="translate(0,0)"/>
<path d="" fill="#6B3408" transform="translate(0,0)"/>
<path d="" fill="#6D320A" transform="translate(0,0)"/>
<path d="" fill="#6E360C" transform="translate(0,0)"/>
<path d="" fill="#703608" transform="translate(0,0)"/>
<path d="" fill="#6E3609" transform="translate(0,0)"/>
<path d="" fill="#6E3509" transform="translate(0,0)"/>
<path d="" fill="#70360A" transform="translate(0,0)"/>
<path d="" fill="#6C3407" transform="translate(0,0)"/>
<path d="" fill="#6E350A" transform="translate(0,0)"/>
<path d="" fill="#693008" transform="translate(0,0)"/>
<path d="" fill="#6E340A" transform="translate(0,0)"/>
<path d="" fill="#693106" transform="translate(0,0)"/>
<path d="" fill="#6F3409" transform="translate(0,0)"/>
<path d="" fill="#6D360A" transform="translate(0,0)"/>
<path d="" fill="#6D3309" transform="translate(0,0)"/>
<path d="" fill="#6E3409" transform="translate(0,0)"/>
<path d="" fill="#6F3509" transform="translate(0,0)"/>
<path d="" fill="#6D3409" transform="translate(0,0)"/>
<path d="" fill="#6E340C" transform="translate(0,0)"/>
<path d="" fill="#6F3308" transform="translate(0,0)"/>
<path d="" fill="#6E3709" transform="translate(0,0)"/>
<path d="" fill="#70310B" transform="translate(0,0)"/>
<path d="" fill="#6F3509" transform="translate(0,0)"/>
<path d="" fill="#6C380A" transform="translate(0,0)"/>
<path d="" fill="#6D3606" transform="translate(0,0)"/>
<path d="" fill="#713708" transform="translate(0,0)"/>
<path d="" fill="#6C390C" transform="translate(0,0)"/>
<path d="" fill="#6E3609" transform="translate(0,0)"/>
<path d="" fill="#6D3308" transform="translate(0,0)"/>
<path d="" fill="#703608" transform="translate(0,0)"/>
<path d="" fill="#6F340A" transform="translate(0,0)"/>
<path d="" fill="#6C3008" transform="translate(0,0)"/>
<path d="" fill="#70370C" transform="translate(0,0)"/>
<path d="" fill="#6F370B" transform="translate(0,0)"/>
<path d="" fill="#6F360B" transform="translate(0,0)"/>
<path d="" fill="#6F3409" transform="translate(0,0)"/>
<path d="" fill="#743C11" transform="translate(0,0)"/>
<path d="" fill="#6D3208" transform="translate(0,0)"/>
<path d="" fill="#73380D" transform="translate(0,0)"/>
<path d="" fill="#73370F" transform="translate(0,0)"/>
<path d="" fill="#6F3008" transform="translate(0,0)"/>
<path d="" fill="#73390E" transform="translate(0,0)"/>
<path d="" fill="#70390B" transform="translate(0,0)"/>
<path d="" fill="#72390C" transform="translate(0,0)"/>
<path d="" fill="#723A0D" transform="translate(0,0)"/>
<path d="" fill="#73380C" transform="translate(0,0)"/>
<path d="" fill="#6F390D" transform="translate(0,0)"/>
<path d="" fill="#6F380A" transform="translate(0,0)"/>
<path d="" fill="#864E1E" transform="translate(0,0)"/>
<path d="" fill="#733B0B" transform="translate(0,0)"/>
<path d="" fill="#70330C" transform="translate(0,0)"/>
<path d="" fill="#73390C" transform="translate(0,0)"/>
<path d="" fill="#723A0F" transform="translate(0,0)"/>
<path d="" fill="#763B10" transform="translate(0,0)"/>
<path d="" fill="#743C0D" transform="translate(0,0)"/>
<path d="" fill="#6E370D" transform="translate(0,0)"/>
<path d="" fill="#723D10" transform="translate(0,0)"/>
<path d="" fill="#763C0C" transform="translate(0,0)"/>
<path d="" fill="#763A11" transform="translate(0,0)"/>
<path d="" fill="#773D10" transform="translate(0,0)"/>
<path d="" fill="#753B0E" transform="translate(0,0)"/>
<path d="" fill="#773E0F" transform="translate(0,0)"/>
<path d="" fill="#794010" transform="translate(0,0)"/>
<path d="" fill="#73390C" transform="translate(0,0)"/>
<path d="" fill="#783C0F" transform="translate(0,0)"/>
<path d="" fill="#733A0D" transform="translate(0,0)"/>
<path d="" fill="#783E11" transform="translate(0,0)"/>
<path d="" fill="#7A3C0D" transform="translate(0,0)"/>
<path d="" fill="#733A0A" transform="translate(0,0)"/>
<path d="" fill="#723C10" transform="translate(0,0)"/>
<path d="" fill="#7A3B0D" transform="translate(0,0)"/>
<path d="" fill="#793D11" transform="translate(0,0)"/>
<path d="" fill="#7A3F12" transform="translate(0,0)"/>
<path d="" fill="#784114" transform="translate(0,0)"/>
<path d="" fill="#7A3E10" transform="translate(0,0)"/>
<path d="" fill="#783E0C" transform="translate(0,0)"/>
<path d="" fill="#7E410E" transform="translate(0,0)"/>
<path d="" fill="#784010" transform="translate(0,0)"/>
<path d="" fill="#763C0E" transform="translate(0,0)"/>
<path d="" fill="#7A4214" transform="translate(0,0)"/>
<path d="" fill="#784012" transform="translate(0,0)"/>
<path d="" fill="#794012" transform="translate(0,0)"/>
<path d="" fill="#793E11" transform="translate(0,0)"/>
<path d="" fill="#7B3F11" transform="translate(0,0)"/>
<path d="" fill="#7A3E11" transform="translate(0,0)"/>
<path d="" fill="#7B4212" transform="translate(0,0)"/>
<path d="" fill="#7C4011" transform="translate(0,0)"/>
<path d="" fill="#793D0E" transform="translate(0,0)"/>
<path d="" fill="#7A3E0F" transform="translate(0,0)"/>
<path d="" fill="#7A4010" transform="translate(0,0)"/>
</svg>
